<svg width="215" height="32" viewBox="0 0 215 32" fill="none" xmlns="http://www.w3.org/2000/svg">
<path d="M0.830081 21.6018C0.830081 21.9628 0.829913 22.3239 0.832096 22.6849C0.833944 22.9891 0.837471 23.2931 0.8457 23.5972C0.863586 24.2595 0.902632 24.9275 1.02028 25.5825C1.13977 26.2474 1.33483 26.8664 1.64242 27.4707C1.94455 28.0642 2.33922 28.6071 2.81013 29.0781C3.28104 29.549 3.82417 29.9437 4.41776 30.2459C5.0216 30.5533 5.6403 30.7483 6.30494 30.8678C6.96017 30.9856 7.62841 31.0246 8.29095 31.0425C8.59501 31.0507 8.89907 31.0542 9.20321 31.0561C9.5642 31.0583 9.92528 31.0581 10.2864 31.0581H21.6036C21.9647 31.0581 22.3257 31.0583 22.6868 31.0561C22.9909 31.0543 23.295 31.0507 23.599 31.0425C24.2616 31.0246 24.9299 30.9856 25.585 30.8678C26.2497 30.7483 26.8683 30.5533 27.4722 30.2459C28.0658 29.9437 28.6089 29.549 29.0798 29.0781C29.5507 28.6071 29.9454 28.0642 30.2475 27.4707C30.5551 26.8665 30.7502 26.2475 30.8697 25.5825C30.9873 24.9275 31.0264 24.2595 31.0443 23.5972C31.0525 23.2931 31.056 22.9891 31.0579 22.6849C31.0601 22.3239 31.0599 21.9629 31.0599 21.6018V10.2845C31.0599 9.92338 31.0601 9.56239 31.0579 9.20131C31.056 8.89716 31.0525 8.5931 31.0443 8.28904C31.0264 7.62675 30.9873 6.95867 30.8697 6.30377C30.7502 5.63871 30.5551 5.01984 30.2475 4.41558C29.9454 3.82215 29.5507 3.2791 29.0798 2.80819C28.6089 2.33719 28.0658 1.94244 27.4722 1.64039C26.8684 1.33297 26.2498 1.13798 25.585 1.01849C24.9299 0.90068 24.2616 0.861633 23.599 0.843831C23.295 0.835601 22.9909 0.832075 22.6868 0.830227C22.3256 0.82796 21.9646 0.828128 21.6035 0.828128H10.2864C9.92528 0.828128 9.5642 0.82796 9.20321 0.830143C8.89907 0.831991 8.59501 0.835518 8.29095 0.843747C7.62841 0.861633 6.96017 0.90068 6.30494 1.01841C5.6403 1.13798 5.02168 1.33297 4.41776 1.64039C3.82417 1.94252 3.28104 2.33727 2.81013 2.80819C2.3393 3.27902 1.94455 3.82206 1.64242 4.41558C1.33483 5.01984 1.13968 5.63871 1.02028 6.30377C0.902632 6.95867 0.863586 7.62675 0.8457 8.28904C0.837471 8.5931 0.834028 8.89716 0.832096 9.20131C0.829913 9.56239 0.830081 9.92338 0.830081 10.2845V21.6018Z" fill="url(#paint0_linear_2824_54498)"/>
<path d="M17.8335 14.0542C17.8132 14.0542 17.793 14.0544 17.7726 14.0546C17.1032 14.0642 16.4707 14.2317 15.9119 14.5201C15.6736 13.7963 15.4505 13.1201 15.2561 12.5322C17.8688 10.0918 18.4633 6.9968 18.4633 5.36313C18.4633 4.75123 18.3955 4.16619 18.3164 3.77077C18.2663 3.52028 18.1288 3.36082 17.9044 3.28113C17.7408 3.22302 17.4582 3.27525 17.4286 3.28021C15.0321 3.6831 13.1731 5.6776 13.1731 8.63804C13.1731 9.3387 13.2468 10.0339 13.3919 10.7155C12.4208 11.335 11.4461 11.992 10.6777 12.8425C9.69701 13.9279 9.19478 15.188 9.14247 16.695C9.08352 18.3935 9.71289 19.9861 10.9147 21.1794C12.0877 22.3441 13.6944 23.0313 15.4387 23.1142C15.5648 23.1202 15.6924 23.1232 15.818 23.1232C16.3314 23.1232 16.8353 23.0737 17.3211 22.9774C17.5721 23.8447 17.7035 24.6128 17.7074 25.2645C17.7074 26.8525 16.987 27.6577 15.5661 27.6577C15.0604 27.6577 14.6362 27.5465 14.3039 27.3351C14.1337 27.2268 14.1528 26.9753 14.3362 26.8914C14.8575 26.653 15.2197 26.127 15.2197 25.5163C15.2197 24.6816 14.543 24.0048 13.7082 24.0048C12.8895 24.0048 12.1968 24.6976 12.1968 25.6738C12.1968 27.4372 13.5508 28.9172 15.5661 28.9172C16.5851 28.9172 17.4371 28.5936 18.0299 27.9816C18.6518 27.3397 18.9671 26.4255 18.9671 25.2645C18.963 24.4962 18.8151 23.6094 18.5307 22.6262C19.1306 22.3924 19.6846 22.0797 20.1716 21.6942C21.3443 20.7658 21.9901 19.5287 21.9901 18.2108C21.9901 15.9189 20.1254 14.0542 17.8335 14.0542ZM17.2469 5.77023C17.4976 5.73806 17.7106 5.9548 17.6702 6.20436C17.4241 7.72493 16.0013 8.97107 14.5356 9.97286C14.4673 9.53234 14.4327 9.08653 14.4327 8.63804C14.4327 7.30851 15.5972 5.98184 17.2469 5.77023ZM13.1433 21.1945C12.4913 20.4687 12.1323 19.4986 12.1323 18.4628C12.1323 16.2336 13.012 14.7389 14.2426 13.4792C14.4274 14.039 14.6313 14.6573 14.845 15.3071C14.1246 16.0398 13.6793 17.033 13.678 18.1196C13.6774 18.5864 13.7284 19.0668 13.8958 19.5335C13.9654 19.7276 14.0946 19.8014 14.2478 19.8216C14.4031 19.8421 14.5705 19.7624 14.6931 19.514C14.9235 19.0473 15.3449 18.562 15.8122 18.2601C16.2838 19.7069 16.7381 21.113 17.0863 22.216C16.6942 22.3151 16.2664 22.3675 15.8183 22.3675C14.7727 22.3675 13.8227 21.9509 13.1433 21.1945ZM18.2651 21.6974C18.2592 21.7016 18.253 21.7053 18.2471 21.7094C17.9007 20.6145 17.4573 19.2428 16.9983 17.8349C17.0249 17.8336 17.0514 17.8329 17.0778 17.8329C17.7088 17.8329 18.2982 18.104 18.7129 18.5912C19.0504 18.9878 19.2295 19.4988 19.2185 20.0195C19.2044 20.6908 18.8754 21.2702 18.2651 21.6974Z" fill="white"/>
<g opacity="0.2">
<path d="M19.2196 20.0195C19.2055 20.6908 18.8765 21.2701 18.2661 21.6975C18.2602 21.7016 18.254 21.7054 18.248 21.7094C18.3143 21.9187 18.377 22.1182 18.4356 22.3055C18.4693 22.4136 18.5011 22.5202 18.5317 22.6261C19.1316 22.3923 19.6856 22.0796 20.1726 21.6941C20.6739 21.2972 21.0789 20.844 21.3783 20.3521L19.2196 20.0195Z" fill="url(#paint1_linear_2824_54498)"/>
<path d="M17.0865 22.2169C17.5268 22.1056 17.9215 21.9349 18.2474 21.7104C17.901 20.6156 17.4577 19.2438 16.9987 17.8359C16.6031 17.8543 16.1907 18.0085 15.8125 18.2611C16.2841 19.7078 16.7384 21.114 17.0865 22.2169Z" fill="url(#paint2_linear_2824_54498)"/>
<path d="M13.6939 6.11914C13.3612 6.84919 13.1738 7.69697 13.1738 8.6383C13.1738 9.33896 13.2476 10.0342 13.3927 10.7158C13.5121 10.6396 13.6314 10.5639 13.7502 10.4886C14.0093 10.3245 14.2734 10.1527 14.5362 9.97312C14.4681 9.5326 14.4334 9.08679 14.4334 8.6383C14.4334 8.01095 14.6927 7.38418 15.14 6.87489L13.6939 6.11914Z" fill="url(#paint3_linear_2824_54498)"/>
<path d="M13.5508 22.7736C14.1503 22.9678 14.7848 23.0838 15.4387 23.1149C15.5648 23.1208 15.6924 23.1239 15.818 23.1239C16.3314 23.1239 16.8353 23.0743 17.3211 22.9781C17.2929 22.8805 17.2635 22.782 17.2323 22.6819C17.186 22.534 17.1371 22.3784 17.0861 22.2165C16.694 22.3156 16.2663 22.3681 15.8181 22.3681C15.2331 22.3681 14.6779 22.2377 14.1833 21.9902L13.5508 22.7736Z" fill="url(#paint4_linear_2824_54498)"/>
<path d="M14.2422 13.4802C14.427 14.04 14.6309 14.6583 14.8446 15.3081C15.154 14.9933 15.514 14.7265 15.9116 14.5212C15.6733 13.7973 15.4502 13.1212 15.2558 12.5332C15.1789 12.6051 15.1004 12.6765 15.0199 12.7472C14.7494 12.9846 14.4888 13.2277 14.2422 13.4802Z" fill="#F9233B"/>
</g>
<path d="M132.373 7.60938C127.61 7.60938 124.561 11.0122 124.561 16.4134C124.561 21.8503 127.586 25.2298 132.373 25.2298C136.297 25.2298 138.968 23.1615 139.618 19.6393H136.983C136.451 21.6953 134.761 22.9132 132.385 22.9132C129.253 22.9132 127.268 20.3964 127.268 16.4134C127.268 12.4674 129.276 9.92594 132.373 9.92594C134.688 9.92594 136.508 11.3565 136.982 13.5427H139.605C139.157 9.98492 136.238 7.60938 132.373 7.60938Z" fill="#000008"/>
<path d="M105.602 7.76221C104.786 7.76221 104.125 8.41233 104.125 9.2284C104.125 10.0321 104.786 10.6932 105.602 10.6932C106.418 10.6932 107.079 10.0321 107.079 9.2284C107.079 8.41233 106.418 7.76221 105.602 7.76221Z" fill="#000008"/>
<path d="M106.878 12.5133H104.325V24.9465H106.878V12.5133Z" fill="#000008"/>
<path d="M74.4501 12.3949V24.9461H76.8723V7.89209H73.7999L68.293 21.4829H68.1984L62.6791 7.89209H59.6191V24.9461H62.0304V12.3949H62.1127L67.2657 24.9461H69.2271L74.3678 12.3949H74.4501Z" fill="#000008"/>
<path d="M87.7798 24.9464H90.2267V12.5132H87.6742V19.7578C87.6742 21.6958 86.5632 22.9727 84.7198 22.9727C82.9587 22.9727 82.0603 21.9564 82.0603 20.065V12.5132H79.5078V20.5615C79.5078 23.4089 81.1619 25.1699 83.8681 25.1699C85.7705 25.1699 87.0351 24.3319 87.7209 22.8424H87.7798V24.9464Z" fill="#000008"/>
<path d="M97.1994 12.2896C100.095 12.2896 101.974 13.897 102.056 16.1903H99.6573C99.516 14.9847 98.6286 14.2289 97.1994 14.2289C95.8168 14.2289 94.8952 14.9024 94.8952 15.8954C94.8952 16.6758 95.463 17.2066 96.8099 17.5138L98.8302 17.9747C101.372 18.5658 102.34 19.5588 102.34 21.3542C102.34 23.6227 100.225 25.1836 97.294 25.1836C94.186 25.1836 92.3179 23.6584 92.082 21.2952H94.6112C94.8471 22.5954 95.7346 23.2332 97.294 23.2332C98.8302 23.2332 99.7752 22.5954 99.7752 21.5791C99.7752 20.7754 99.3144 20.3022 97.9552 19.995L95.9348 19.5218C93.5716 18.9786 92.4016 17.843 92.4016 16.0353C92.4002 13.8134 94.3397 12.2896 97.1994 12.2896Z" fill="#000008"/>
<path d="M117.656 16.7924C117.397 15.4688 116.404 14.4168 114.738 14.4168C112.764 14.4168 111.464 16.06 111.464 18.7304C111.464 21.4598 112.775 23.0439 114.761 23.0439C116.333 23.0439 117.362 22.1812 117.656 20.7397H120.114C119.843 23.3868 117.726 25.1836 114.736 25.1836C111.179 25.1836 108.863 22.7491 108.863 18.7304C108.863 14.783 111.18 12.2896 114.713 12.2896C117.916 12.2896 119.866 14.3455 120.091 16.7924H117.656Z" fill="#000008"/>
<path d="M141.596 7.89209H144.148V24.9461H141.596V7.89209Z" fill="#000008"/>
<path fill-rule="evenodd" clip-rule="evenodd" d="M150.73 17.7374C147.776 17.9033 146.109 19.2379 146.109 21.4132C146.109 23.6461 147.812 25.1589 150.246 25.1589C151.877 25.1589 153.449 24.2838 154.17 22.9013H154.229V24.9463H156.676V16.3782C156.676 13.8847 154.749 12.2896 151.736 12.2896C148.662 12.2896 146.747 13.945 146.606 16.1903H149.017C149.242 15.0793 150.164 14.3702 151.641 14.3702C153.2 14.3702 154.135 15.1973 154.135 16.5798V17.5371L150.73 17.7374ZM154.135 19.3092V20.2899C154.135 21.9097 152.74 23.1386 150.955 23.1386C149.585 23.1386 148.687 22.4295 148.687 21.3418C148.687 20.2789 149.548 19.6054 151.073 19.4985L154.135 19.3092Z" fill="#000008"/>
<path d="M163.528 12.2896C166.423 12.2896 168.302 13.897 168.384 16.1903H165.985C165.844 14.9847 164.957 14.2289 163.528 14.2289C162.145 14.2289 161.223 14.9024 161.223 15.8954C161.223 16.6758 161.791 17.2066 163.138 17.5138L165.158 17.9747C167.7 18.5658 168.668 19.5588 168.668 21.3542C168.668 23.6227 166.553 25.1836 163.622 25.1836C160.514 25.1836 158.646 23.6584 158.41 21.2952H160.939C161.175 22.5954 162.063 23.2332 163.622 23.2332C165.158 23.2332 166.103 22.5954 166.103 21.5791C166.103 20.7754 165.643 20.3022 164.283 19.995L162.263 19.5218C159.9 18.9786 158.73 17.843 158.73 16.0353C158.728 13.8134 160.666 12.2896 163.528 12.2896Z" fill="#000008"/>
<path d="M179.884 16.1903C179.802 13.897 177.923 12.2896 175.028 12.2896C172.168 12.2896 170.23 13.8134 170.23 16.0353C170.23 17.843 171.4 18.9786 173.763 19.5218L175.783 19.995C177.143 20.3022 177.603 20.7754 177.603 21.5791C177.603 22.5954 176.658 23.2332 175.122 23.2332C173.563 23.2332 172.675 22.5954 172.439 21.2952H169.91C170.146 23.6584 172.014 25.1836 175.122 25.1836C178.053 25.1836 180.168 23.6227 180.168 21.3542C180.168 19.5588 179.2 18.5658 176.658 17.9747L174.638 17.5138C173.291 17.2066 172.723 16.6758 172.723 15.8954C172.723 14.9024 173.645 14.2289 175.028 14.2289C176.457 14.2289 177.344 14.9847 177.485 16.1903H179.884Z" fill="#000008"/>
<path d="M181.951 9.2284C181.951 8.41233 182.612 7.76221 183.428 7.76221C184.244 7.76221 184.906 8.41233 184.906 9.2284C184.906 10.0321 184.244 10.6932 183.428 10.6932C182.612 10.6932 181.951 10.0321 181.951 9.2284Z" fill="#000008"/>
<path d="M182.151 12.5133H184.704V24.9465H182.151V12.5133Z" fill="#000008"/>
<path d="M192.562 14.4168C194.228 14.4168 195.221 15.4688 195.481 16.7924H197.915C197.69 14.3455 195.74 12.2896 192.537 12.2896C189.004 12.2896 186.688 14.783 186.688 18.7304C186.688 22.7491 189.003 25.1836 192.561 25.1836C195.551 25.1836 197.667 23.3868 197.939 20.7397H195.481C195.186 22.1812 194.157 23.0439 192.585 23.0439C190.601 23.0439 189.288 21.4598 189.288 18.7304C189.288 16.06 190.588 14.4168 192.562 14.4168Z" fill="#000008"/>
<path fill-rule="evenodd" clip-rule="evenodd" d="M199.186 21.4132C199.186 19.2379 200.852 17.9033 203.806 17.7374L207.211 17.5371V16.5798C207.211 15.1973 206.277 14.3702 204.717 14.3702C203.24 14.3702 202.318 15.0793 202.093 16.1903H199.682C199.823 13.945 201.738 12.2896 204.812 12.2896C207.825 12.2896 209.752 13.8847 209.752 16.3782V24.9463H207.305V22.9013H207.246C206.525 24.2838 204.953 25.1589 203.322 25.1589C200.886 25.1589 199.186 23.6461 199.186 21.4132ZM207.209 20.2899V19.3092L204.148 19.4985C202.623 19.6054 201.761 20.2789 201.761 21.3418C201.761 22.4295 202.66 23.1386 204.03 23.1386C205.814 23.1386 207.209 21.9097 207.209 20.2899Z" fill="#000008"/>
<path d="M214.791 7.89209H212.238V24.9461H214.791V7.89209Z" fill="#000008"/>
<path d="M52.4717 6.60547C52.591 7.68763 52.1562 8.77528 51.5102 9.55569C50.8642 10.3375 49.8067 10.9437 48.7698 10.8642C48.6271 9.80395 49.1511 8.6971 49.7491 8.00583C50.417 7.22541 51.5417 6.6425 52.4717 6.60547Z" fill="#000008"/>
<path d="M49.99 11.6051C50.671 11.3355 51.5164 11.0008 52.4483 11.0697C53.045 11.1136 54.7375 11.2919 55.8334 12.9076C55.832 12.9084 55.8301 12.9096 55.8278 12.911C55.6842 12.9975 53.8148 14.1233 53.8364 16.4243C53.8609 19.198 56.2493 20.1368 56.3151 20.1627L56.3162 20.1631C56.3151 20.1665 56.313 20.1731 56.31 20.1827C56.2551 20.3591 55.8821 21.5566 55.0365 22.791C54.2657 23.9185 53.4688 25.039 52.2083 25.0623C51.6038 25.0737 51.1994 24.8988 50.7789 24.7169C50.3388 24.5265 49.8811 24.3286 49.1579 24.3286C48.3992 24.3286 47.9199 24.5327 47.4582 24.7293C47.0586 24.8995 46.6723 25.064 46.1295 25.0857C44.9142 25.1323 43.9884 23.8677 43.2121 22.7471C41.6252 20.4525 40.4113 16.2624 42.0408 13.4343C42.8486 12.0298 44.2943 11.141 45.8634 11.1177C46.5407 11.1045 47.196 11.3642 47.7698 11.5916C48.208 11.7652 48.5986 11.9201 48.9151 11.9201C49.1946 11.9201 49.5594 11.7756 49.99 11.6051Z" fill="#000008"/>
<defs>
<linearGradient id="paint0_linear_2824_54498" x1="15.945" y1="30.9446" x2="15.945" y2="1.47946" gradientUnits="userSpaceOnUse">
<stop stop-color="#FA233B"/>
<stop offset="1" stop-color="#FB5C74"/>
</linearGradient>
<linearGradient id="paint1_linear_2824_54498" x1="18.5256" y1="22.1341" x2="19.681" y2="20.9146" gradientUnits="userSpaceOnUse">
<stop stop-color="#F9233B"/>
<stop offset="1" stop-color="#F9233B" stop-opacity="0"/>
</linearGradient>
<linearGradient id="paint2_linear_2824_54498" x1="16.4694" y1="18.0549" x2="17.3359" y2="21.0395" gradientUnits="userSpaceOnUse">
<stop stop-color="#F9233B"/>
<stop offset="1" stop-color="#F9233B" stop-opacity="0"/>
</linearGradient>
<linearGradient id="paint3_linear_2824_54498" x1="14.6077" y1="9.9658" x2="13.9338" y2="7.65516" gradientUnits="userSpaceOnUse">
<stop stop-color="#F9233B"/>
<stop offset="1" stop-color="#F9233B" stop-opacity="0"/>
</linearGradient>
<linearGradient id="paint4_linear_2824_54498" x1="17.0722" y1="22.6146" x2="14.6974" y2="22.5504" gradientUnits="userSpaceOnUse">
<stop stop-color="#F9233B"/>
<stop offset="1" stop-color="#F9233B" stop-opacity="0"/>
</linearGradient>
</defs>
</svg>
