<svg width="55" height="20" viewBox="0 0 55 20" fill="none" xmlns="http://www.w3.org/2000/svg">
<path d="M35.2084 0.500001H38.0553C38.1602 0.499847 38.264 0.521109 38.3605 0.562472C38.457 0.603834 38.5439 0.664424 38.6162 0.740557C38.6885 0.816691 38.7444 0.906743 38.7807 1.00523C38.8168 1.10373 38.8326 1.20859 38.8269 1.31338V18.7281C38.8269 18.9328 38.7457 19.1291 38.6009 19.2737C38.4562 19.4185 38.2599 19.4999 38.0553 19.4999H35.2084C35.0928 19.5019 34.9782 19.4777 34.8735 19.4288C34.7687 19.38 34.6763 19.3081 34.6035 19.2182L26.6261 8.37314V18.7281C26.6261 18.9328 26.5448 19.1291 26.4001 19.2737C26.2553 19.4185 26.059 19.4999 25.8544 19.4999H23.0075C22.9062 19.4999 22.8059 19.4798 22.7122 19.441C22.6187 19.4022 22.5335 19.3455 22.4618 19.2737C22.3902 19.2021 22.3333 19.117 22.2945 19.0235C22.2559 18.9298 22.2358 18.8295 22.2358 18.7281V1.31338C22.2358 1.21205 22.2559 1.11168 22.2945 1.01806C22.3333 0.924436 22.3902 0.839392 22.4618 0.767734C22.5335 0.696078 22.6187 0.639217 22.7122 0.600436C22.8059 0.561656 22.9062 0.541723 23.0075 0.541723H25.8544C25.9822 0.541038 26.1083 0.5721 26.2212 0.632165C26.3339 0.692231 26.4301 0.779407 26.5009 0.885832L34.4367 11.585V1.27166C34.4367 1.067 34.518 0.87073 34.6627 0.726014C34.8075 0.581298 35.0038 0.500001 35.2084 0.500001Z" fill="#06C755"/>
<path d="M4.35894 15.0992H11.9923C12.197 15.0992 12.3932 15.1805 12.538 15.3252C12.6827 15.4699 12.764 15.6662 12.764 15.8709V18.6864C12.764 18.8911 12.6827 19.0874 12.538 19.2321C12.3932 19.3769 12.197 19.4581 11.9923 19.4581H0.771669C0.567007 19.4581 0.370732 19.3769 0.226014 19.2321C0.0812963 19.0874 0 18.8911 0 18.6864V1.26123C0.00274146 1.05838 0.0852521 0.86479 0.229674 0.722322C0.374096 0.579853 0.568801 0.499983 0.771669 0.500001H3.5977C3.79961 0.500001 3.99322 0.580197 4.13598 0.722959C4.27874 0.865719 4.35894 1.05933 4.35894 1.26123V15.0992Z" fill="#06C755"/>
<path d="M15.9238 0.500001H18.7603C19.1807 0.500001 19.5216 0.84082 19.5216 1.26124V18.7073C19.5216 19.1277 19.1807 19.4686 18.7603 19.4686H15.9238C15.5034 19.4686 15.1626 19.1277 15.1626 18.7073V1.26124C15.1626 0.84082 15.5034 0.500001 15.9238 0.500001Z" fill="#06C755"/>
<path d="M53.547 0.500001H42.3264C42.1236 0.499983 41.9287 0.579853 41.7843 0.722322C41.6399 0.86479 41.5575 1.05838 41.5547 1.26123V18.6864C41.5547 18.8911 41.6359 19.0874 41.7807 19.2321C41.9254 19.3769 42.1217 19.4581 42.3264 19.4581H53.547C53.7518 19.4581 53.9479 19.3769 54.0926 19.2321C54.2374 19.0874 54.3186 18.8911 54.3186 18.6864V15.8709C54.3186 15.6662 54.2374 15.4699 54.0926 15.3252C53.9479 15.1805 53.7518 15.0992 53.547 15.0992H45.8824V12.1585H53.5158C53.7204 12.1585 53.9167 12.0772 54.0613 11.9325C54.2061 11.7878 54.2875 11.5915 54.2875 11.3868V8.57126C54.2875 8.3666 54.2061 8.17032 54.0613 8.02561C53.9167 7.88089 53.7204 7.7996 53.5158 7.7996H45.8824V4.82761H53.5158C53.7204 4.82761 53.9167 4.74632 54.0613 4.6016C54.2061 4.45689 54.2875 4.26061 54.2875 4.05595V1.26123C54.2848 1.06368 54.2067 0.874637 54.0689 0.733015C53.9312 0.591391 53.7445 0.507994 53.547 0.500001Z" fill="#06C755"/>
</svg>
