<svg width="157" height="32" viewBox="0 0 157 32" fill="none" xmlns="http://www.w3.org/2000/svg">
<path d="M16.5 31.9999C25.3366 31.9999 32.5 24.8365 32.5 15.9999C32.5 7.16342 25.3366 0 16.5 0C7.66344 0 0.5 7.16342 0.5 15.9999C0.5 24.8365 7.66344 31.9999 16.5 31.9999Z" fill="#59FF93"/>
<path d="M14.0327 25.0411C12.9417 25.0411 12.0486 24.7846 11.3666 24.2736C10.7919 23.8424 10.4622 23.2998 10.2737 22.8222C10.1155 22.5155 10.01 22.1643 9.96662 21.7759C9.94212 21.5547 9.94589 21.3317 9.96285 21.1106L10.7146 11.1515H8.65711L8.01837 21.0325C7.813 23.5265 9.3486 25.593 11.6699 25.9498C11.896 25.9833 12.124 26 12.3482 26C12.9135 26 13.4637 25.8941 13.9875 25.6822L14.0478 25.6599C14.4642 25.4834 14.8523 25.2455 15.1971 24.9537C14.7864 25.0132 14.4001 25.0411 14.0346 25.0411H14.0327ZM23.9793 15.0504C23.9152 14.3999 23.6948 13.7588 23.3405 13.1975C23.2199 13.0043 23.0843 12.8222 22.9392 12.6568C22.8262 12.5267 22.698 12.3984 22.5435 12.2609L22.3796 12.116L22.536 11.9599C23.1936 11.2964 23.5779 10.436 23.6194 9.53466C23.6627 8.58874 23.3292 7.70229 22.683 7.03327C22.0348 6.3661 21.153 6 20.1977 6C18.2118 6 16.5236 7.5945 16.435 9.5551C16.3992 10.3468 16.6253 11.0976 17.0907 11.7238L17.2151 11.8892L17.0511 12.0156C16.0111 12.8073 15.3535 14.0654 15.2499 15.4611L15.1538 16.498H13.0115L12.8701 18.178H14.9974L14.662 21.8C14.6488 21.9487 14.6243 22.0955 14.5923 22.2386L14.5471 22.3873C14.2399 23.3983 13.3525 24.0766 12.3426 24.0766C12.2634 24.0766 12.1824 24.0728 12.1014 24.0636C13.002 24.5356 14.2588 24.6043 15.8528 24.2643C16.6197 23.2366 16.7007 21.9747 16.7855 20.6367C16.8005 20.4081 16.8137 20.1777 16.8326 19.9509L16.9777 18.178H19.3084L19.4497 16.498H17.1152L17.2056 15.4072C17.4336 14.0134 18.3663 13.1009 19.6042 13.0805C19.689 13.086 19.7738 13.0916 19.8586 13.0916H19.8793C20.9382 13.2031 21.7503 14.0097 21.9048 15.0987L21.9274 15.2585H24L23.9812 15.0522L23.9793 15.0504ZM19.9641 11.1496C19.5288 11.1496 19.1237 10.9805 18.8298 10.6757C18.5321 10.3691 18.3795 9.96395 18.3983 9.53466C18.4379 8.65378 19.1972 7.93644 20.0922 7.93644C20.5275 7.93644 20.9326 8.10556 21.2265 8.40847C21.5242 8.71511 21.6768 9.1221 21.658 9.55138C21.6184 10.4323 20.8572 11.1496 19.9641 11.1496Z" fill="#113E53"/>
<path d="M51.623 24.1726L52.5027 13.6837H55.1277L54.2508 24.1726" fill="#113E53"/>
<path d="M54.2234 8.54895C55.1866 8.54895 55.8741 9.22753 55.799 10.1221C55.7238 11.0168 54.9221 11.6953 53.9618 11.6953C53.0014 11.6953 52.3612 10.9531 52.4308 10.1221C52.5004 9.29123 53.2631 8.54895 54.2262 8.54895H54.2234Z" fill="#113E53"/>
<path d="M56.9424 13.6832H59.4366L59.2946 15.3672H59.3391C59.907 14.3175 60.9676 13.4229 62.7185 13.4229C65.5411 13.4229 66.3818 15.4115 66.2036 17.5525L65.6497 24.1749H63.0247L63.4701 18.8653C63.5675 17.7076 63.6399 15.7827 61.8027 15.7827C60.074 15.7827 59.289 17.0512 59.1721 18.4499L58.6933 24.1749H56.0684L56.9452 13.686L56.9424 13.6832Z" fill="#113E53"/>
<path d="M75.9999 16.0438L78.2964 13.8141H74.9282L70.6497 18.0324L71.4765 8.14453H68.8487L67.5098 24.1729H70.1347L70.5829 18.8163H70.6247L74.3603 24.1729H77.8371L73.5252 18.4479L75.9999 16.041V16.0438Z" fill="#113E53"/>
<path d="M102.503 24.1733H100.009L100.151 22.4893H100.106C99.5381 23.5391 98.4775 24.4337 96.7266 24.4337C93.904 24.4337 93.0634 22.445 93.2415 20.304L93.7955 13.6816H96.4204L95.975 18.9912C95.8776 20.1489 95.8052 22.0739 97.6425 22.0739C99.3711 22.0739 100.156 20.8054 100.273 19.4066L100.752 13.6816H103.377L102.5 24.1706L102.503 24.1733Z" fill="#113E53"/>
<path d="M106.964 19.8466C107.009 21.3977 108.114 22.3366 109.578 22.3366C110.892 22.3366 111.797 21.7245 112.521 20.9158L114.283 22.3366C112.93 23.8433 111.329 24.4333 109.664 24.4333C106.491 24.4333 104.139 22.2258 104.415 18.9271C104.69 15.6284 107.413 13.4209 110.586 13.4209C113.517 13.4209 115.338 15.476 115.031 19.1237L114.97 19.8439H106.962L106.964 19.8466ZM112.512 17.8801C112.618 16.3513 111.691 15.3902 110.051 15.3902C108.498 15.3902 107.451 16.3734 107.129 17.8801H112.512Z" fill="#113E53"/>
<path d="M117.095 13.6832H119.589L119.447 15.3672H119.491C120.059 14.3175 121.12 13.4229 122.871 13.4229C125.693 13.4229 126.534 15.4115 126.356 17.5525L125.802 24.1749H123.177L123.622 18.8653C123.72 17.7076 123.792 15.7827 121.955 15.7827C120.226 15.7827 119.441 17.0512 119.324 18.4499L118.846 24.1749H116.221L117.098 13.686L117.095 13.6832Z" fill="#113E53"/>
<path d="M135.62 16.8297C135.061 16.1955 134.418 15.78 133.716 15.78C131.79 15.78 130.504 17.2867 130.367 18.9264C130.231 20.5661 131.264 22.0728 133.19 22.0728C134 22.0728 134.774 21.7238 135.308 21.0895L136.901 22.9702C135.74 24.0421 133.911 24.4354 132.992 24.4354C129.819 24.4354 127.467 22.2279 127.742 18.9292C128.018 15.6304 130.74 13.423 133.914 13.423C135.25 13.423 136.675 13.9049 137.588 15.0183L135.62 16.8325V16.8297Z" fill="#113E53"/>
<path d="M140.16 19.8466C140.204 21.3977 141.309 22.3366 142.773 22.3366C144.087 22.3366 144.992 21.7245 145.716 20.9158L147.478 22.3366C146.125 23.8433 144.524 24.4333 142.86 24.4333C139.686 24.4333 137.334 22.2258 137.61 18.9271C137.885 15.6284 140.608 13.4209 143.781 13.4209C146.712 13.4209 148.533 15.476 148.227 19.1237L148.165 19.8439H140.157L140.16 19.8466ZM145.707 17.8801C145.813 16.3513 144.886 15.3902 143.247 15.3902C141.693 15.3902 140.647 16.3734 140.324 17.8801H145.707Z" fill="#113E53"/>
<path d="M150.141 13.6832H152.766L152.627 15.345H152.672C153.343 14.143 154.562 13.4229 155.94 13.4229C156.268 13.4229 156.569 13.4893 156.867 13.5752L156.655 16.1095C156.226 16.0015 155.817 15.9128 155.402 15.9128C152.931 15.9128 152.407 17.9901 152.357 18.5579L151.887 24.1749H149.262L150.139 13.686L150.141 13.6832Z" fill="#113E53"/>
<path d="M78.2972 13.8154L76.0007 16.0451H75.2324L75.4189 13.8154H78.2972Z" fill="#113E53"/>
<path d="M85.4125 13.8154L85.2288 16.0451H78.7012L79.0909 13.8154H85.4125Z" fill="#113E53"/>
<path d="M93.0486 24.1814C92.3889 24.3171 91.7069 24.3115 91.0527 24.173C90.5266 24.0623 90.0172 23.8684 89.5523 23.5914H89.5496C88.8425 23.1732 88.2301 22.5721 87.8042 21.8022C87.4201 21.0987 87.267 20.301 87.267 19.5033L87.8154 12.9501V12.9418C87.8098 11.6678 86.8912 10.6347 85.6163 10.6347C84.3414 10.6347 83.3838 11.5847 83.2975 12.7784L82.3789 24.173H79.7539L80.7922 12.7784C80.8841 10.2081 83.0108 8.14746 85.6135 8.14746C86.5432 8.14746 87.4145 8.41335 88.155 8.86759C88.5753 9.12794 88.9511 9.452 89.2712 9.82037C89.4354 10.0115 89.583 10.2109 89.7138 10.4242C90.1174 11.0723 90.3763 11.8229 90.4292 12.6261C90.4348 12.7341 90.4403 12.8394 90.4403 12.9501L89.8919 19.5061C89.8919 20.8106 90.8857 21.7218 91.9741 21.7994C92.1161 22.7466 92.4752 23.5499 93.043 24.1758L93.0514 24.1841L93.0486 24.1814Z" fill="#113E53"/>
<path d="M43.4646 21.6811L44.6114 8.14551H41.8556L40.5 24.1711H49.8447L50.0507 21.6811H43.4646Z" fill="#113E53"/>
</svg>
