<svg width="94" height="25" viewBox="0 0 94 25" fill="none" xmlns="http://www.w3.org/2000/svg">
<path d="M62.4108 -0.00390625H58.4925V21.9101C62.0535 22.0326 65.5994 22.2123 69.131 22.4477V18.5869C66.897 18.4379 64.6572 18.3116 62.4108 18.207V-0.00390625ZM93.5503 -0.00168944H89.246L86.4089 6.57448L83.8599 -0.00168944H79.6202L84.1762 11.749L79.2029 23.2768C80.5787 23.411 81.9507 23.5542 83.3213 23.7055L86.2139 17.0029L89.0784 24.3916C90.5704 24.5834 92.0584 24.7836 93.5438 24.9956L93.5503 24.993L88.4459 11.8284L93.5503 -0.00168944ZM45.0421 21.7186L48.9606 21.7178V12.8037H54.2723V8.94291H48.9606V3.89409H55.9808V-0.00149343H45.0421V21.7186ZM30.4098 3.89383H34.5108V21.9482C35.8147 21.8989 37.1213 21.8583 38.4292 21.8241V3.89383H42.53V-0.00168944H30.4098V3.89383ZM17.0137 23.0703C20.6252 22.7421 24.2533 22.4716 27.8979 22.2617V18.4004C25.5693 18.535 23.2473 18.6944 20.932 18.8764V13.0312C22.4512 13.0161 24.4515 12.9698 26.2236 12.9918V9.13064C24.8079 9.12719 22.5324 9.1504 20.932 9.17088V3.89409H27.8979V-0.00149343H17.0137V23.0703ZM9.32737 14.1446L4.22396 -0.00168944H0.5V24.9961C1.80361 24.8105 3.10971 24.6328 4.41834 24.4624V10.8687L8.95615 23.9042C10.3834 23.7387 11.8132 23.582 13.2458 23.4346V-0.00168944H9.32737V14.1446ZM72.3614 22.6802C73.6694 22.7803 74.9755 22.8877 76.2803 23.0038V-0.00168944H72.3614V22.6802Z" fill="#ED1C24"/>
</svg>
