<svg width="85" height="30" viewBox="0 0 85 30" fill="none" xmlns="http://www.w3.org/2000/svg">
<path d="M76.0333 12.3186C77.0463 12.3186 77.8674 11.4975 77.8674 10.4845C77.8674 9.47156 77.0463 8.65039 76.0333 8.65039C75.0204 8.65039 74.1992 9.47156 74.1992 10.4845C74.1992 11.4975 75.0204 12.3186 76.0333 12.3186Z" fill="#FF4500"/>
<path fill-rule="evenodd" clip-rule="evenodd" d="M60.5991 7.49023C61.1701 7.49023 61.6373 7.95742 61.6373 8.52842V21.8691C61.6373 22.4401 61.1701 22.9073 60.5991 22.9073C60.0973 22.9073 59.6647 22.5439 59.5782 22.0594C58.8688 22.7689 57.969 23.1322 56.9136 23.1322C54.1797 23.1322 51.9649 20.6579 51.9649 17.6125C51.9649 14.5672 54.1797 12.0929 56.9136 12.0929C57.969 12.0929 58.8515 12.4389 59.5609 13.1483V8.52842C59.5609 7.95742 60.0281 7.49023 60.5991 7.49023ZM54.0586 17.6125C54.0586 19.5332 55.339 21.0732 56.9309 21.0732C58.5054 21.0732 59.8032 19.5332 59.8032 17.6125C59.8032 15.6919 58.5227 14.1519 56.9309 14.1519C55.339 14.1519 54.0586 15.7092 54.0586 17.6125Z" fill="#222222"/>
<path fill-rule="evenodd" clip-rule="evenodd" d="M51.2191 16.9722C51.2538 17.6297 50.7347 18.3045 49.8349 18.3045V18.2699H43.5193C43.7789 19.8445 44.9555 21.0384 46.3397 21.0384C47.4844 21.0384 48.2033 20.416 48.592 20.0796L48.6237 20.0521C49.0217 19.7234 49.5581 19.6196 49.9906 19.9137C50.5097 20.2771 50.5962 21.0211 50.1637 21.5056C49.2812 22.4919 48.0527 23.1148 46.3397 23.1148C43.6059 23.1148 41.3911 20.6404 41.3911 17.5951C41.3911 14.5497 43.6059 12.0754 46.3397 12.0754C48.641 12.0754 50.5789 13.8403 51.1326 16.2281C51.1672 16.4012 51.2018 16.6261 51.2191 16.9722ZM49.039 16.4704C48.641 15.1381 47.5682 14.1691 46.3224 14.1691C45.0766 14.1691 44.0038 15.1207 43.6059 16.4704H49.039Z" fill="#222222"/>
<path d="M40.6302 12.1447C41.1147 12.2312 41.4953 12.6465 41.4953 13.1656C41.4953 13.702 41.0801 14.1519 40.561 14.1865H40.3533C38.3462 13.9616 36.8928 15.5534 36.8928 17.4914V21.8691C36.8928 22.4747 36.391 22.9419 35.7854 22.9073C35.2317 22.8727 34.8164 22.3882 34.8164 21.8345V13.3559C34.8164 12.7849 35.2836 12.3178 35.8546 12.3178C36.3737 12.3178 36.8928 12.7157 36.8928 13.3559V13.4944C37.706 12.4735 39.1248 11.9198 40.6302 12.1447Z" fill="#222222"/>
<path d="M77.0706 14.2725C77.0706 13.7015 76.6035 13.2344 76.0325 13.2344C75.4615 13.2344 74.9943 13.7015 74.9943 14.2725V21.8686C74.9943 22.4396 75.4615 22.9068 76.0325 22.9068C76.6035 22.9068 77.0706 22.4396 77.0706 21.8686V14.2725Z" fill="#222222"/>
<path fill-rule="evenodd" clip-rule="evenodd" d="M72.4665 8.52842C72.4665 7.95742 71.9994 7.49023 71.4284 7.49023C70.8574 7.49023 70.3902 7.95742 70.3902 8.52842V13.1483C69.6808 12.4389 68.7983 12.0929 67.7428 12.0929C65.009 12.0929 62.7942 14.5672 62.7942 17.6125C62.7942 20.6579 65.009 23.1322 67.7428 23.1322C68.7983 23.1322 69.6981 22.7689 70.4075 22.0594C70.494 22.5439 70.9266 22.9073 71.4284 22.9073C71.9994 22.9073 72.4665 22.4401 72.4665 21.8691V8.52842ZM67.7428 21.0732C66.151 21.0732 64.8706 19.5332 64.8706 17.6125C64.8706 15.7092 66.151 14.1519 67.7428 14.1519C69.3347 14.1519 70.6151 15.6919 70.6151 17.6125C70.6151 19.5332 69.3347 21.0732 67.7428 21.0732Z" fill="#222222"/>
<path d="M82.3309 14.1691V21.8863C82.3309 22.4573 81.881 22.9072 81.2754 22.9418C80.7044 22.9418 80.2372 22.4746 80.2372 21.9036V14.1864H79.3548C78.8357 14.1864 78.4031 13.7365 78.4377 13.2001C78.4723 12.6984 78.9049 12.335 79.3894 12.335H80.2545V10.8296C80.2545 10.224 80.7563 9.75682 81.3619 9.79143C81.9156 9.82604 82.3309 10.3105 82.3309 10.8642V12.3177H83.2825C83.8016 12.3177 84.2342 12.7676 84.1996 13.304C84.165 13.8058 83.7324 14.1691 83.2479 14.1691H82.3309Z" fill="#222222"/>
<path d="M14.4999 29.5C22.5079 29.5 28.9997 23.0081 28.9997 15C28.9997 6.99187 22.5079 0.5 14.4999 0.5C6.4918 0.5 0 6.99187 0 15C0 23.0081 6.4918 29.5 14.4999 29.5Z" fill="#FF4500"/>
<path d="M24.1733 14.9995C24.1733 13.8229 23.2217 12.8885 22.0624 12.8885C21.4914 12.8885 20.9723 13.1135 20.5916 13.4768C19.1382 12.4387 17.1484 11.7638 14.9336 11.6773L15.9025 7.1439L19.0517 7.81872C19.0863 8.61467 19.7438 9.25488 20.557 9.25488C21.3876 9.25488 22.0624 8.58006 22.0624 7.74951C22.0624 6.91896 21.3876 6.24414 20.557 6.24414C19.9687 6.24414 19.4496 6.5902 19.2074 7.09199L15.6949 6.34796C15.5911 6.33066 15.4873 6.34796 15.4181 6.39987C15.3315 6.45178 15.2796 6.53829 15.2623 6.64211L14.1896 11.6946C11.9402 11.7638 9.91574 12.4387 8.44499 13.4941C8.06432 13.1308 7.54523 12.9058 6.97424 12.9058C5.79764 12.9058 4.86328 13.8575 4.86328 15.0168C4.86328 15.882 5.38237 16.6087 6.10909 16.9375C6.07449 17.1451 6.05718 17.3527 6.05718 17.5777C6.05718 20.8307 9.84652 23.478 14.5183 23.478C19.1901 23.478 22.9794 20.848 22.9794 17.5777C22.9794 17.37 22.9621 17.1451 22.9275 16.9375C23.6543 16.6087 24.1733 15.8647 24.1733 14.9995ZM9.67349 16.5049C9.67349 15.6743 10.3483 14.9995 11.1788 14.9995C12.0094 14.9995 12.6842 15.6743 12.6842 16.5049C12.6842 17.3354 12.0094 18.0103 11.1788 18.0103C10.3483 18.0276 9.67349 17.3354 9.67349 16.5049ZM18.1 20.5019C17.0618 21.5401 15.0893 21.6093 14.5183 21.6093C13.93 21.6093 11.9575 21.5228 10.9366 20.5019C10.7809 20.3462 10.7809 20.1039 10.9366 19.9482C11.0923 19.7925 11.3346 19.7925 11.4903 19.9482C12.1478 20.6057 13.532 20.8307 14.5183 20.8307C15.5046 20.8307 16.9061 20.6057 17.5463 19.9482C17.702 19.7925 17.9443 19.7925 18.1 19.9482C18.2384 20.1039 18.2384 20.3462 18.1 20.5019ZM17.8232 18.0276C16.9926 18.0276 16.3178 17.3527 16.3178 16.5222C16.3178 15.6916 16.9926 15.0168 17.8232 15.0168C18.6537 15.0168 19.3285 15.6916 19.3285 16.5222C19.3285 17.3354 18.6537 18.0276 17.8232 18.0276Z" fill="white"/>
</svg>
