<svg width="38" height="36" viewBox="0 0 38 36" fill="none" xmlns="http://www.w3.org/2000/svg">
<path d="M34.4584 26.6515C28.7982 23.9116 27.8961 19.6811 27.8559 19.3673C27.8074 18.9872 27.7523 18.6884 28.1716 18.3018C28.5759 17.9282 30.3699 16.8178 30.8677 16.4704C31.6904 15.8952 32.0528 15.3208 31.7857 14.6148C31.5989 14.1264 31.1441 13.9424 30.665 13.9424C30.5139 13.9429 30.3633 13.9598 30.2158 13.9929C29.3118 14.189 28.434 14.6419 27.926 14.7642C27.8649 14.78 27.8022 14.7884 27.7392 14.7894C27.4684 14.7894 27.3656 14.669 27.3918 14.3431C27.4553 13.355 27.5898 11.4266 27.4338 9.62511C27.2199 7.1466 26.4205 5.91856 25.4727 4.83246C25.0141 4.30575 22.8849 2.04297 18.7758 2.04297C14.6668 2.04297 12.5403 4.30575 12.0846 4.82592C11.1339 5.91202 10.3355 7.14007 10.1235 9.61858C9.96752 11.42 10.1076 13.3475 10.1655 14.3365C10.1842 14.6466 10.0889 14.7829 9.8181 14.7829C9.75507 14.7818 9.69238 14.7734 9.63132 14.7577C9.12423 14.6354 8.24638 14.1824 7.34239 13.9863C7.19493 13.9533 7.04431 13.9363 6.8932 13.9359C6.41225 13.9359 5.95932 14.1227 5.77254 14.6083C5.50546 15.3143 5.86593 15.8886 6.69148 16.4639C7.18923 16.8113 8.98321 17.9207 9.38758 18.2952C9.80596 18.6818 9.75179 18.9807 9.70323 19.3608C9.66307 19.6792 8.76001 23.9097 3.10072 26.645C2.7692 26.8056 2.20514 27.1456 3.19971 27.6947C4.76116 28.5576 5.80056 28.4651 6.60836 28.9853C7.29383 29.427 6.88853 30.3796 7.38722 30.7232C7.99984 31.1463 9.81063 30.6934 12.15 31.4657C14.1111 32.1119 15.3028 33.9377 18.7805 33.9377C22.2583 33.9377 23.4844 32.1035 25.411 31.4657C27.7457 30.6934 29.5602 31.1463 30.1738 30.7232C30.6716 30.3796 30.2672 29.427 30.9527 28.9853C31.7605 28.4651 32.7989 28.5576 34.3613 27.6947C35.354 27.1521 34.7899 26.8122 34.4584 26.6515Z" fill="white"/>
<path d="M36.9207 26.3297C36.6667 25.6386 36.183 25.2688 35.632 24.9625C35.5283 24.9018 35.4331 24.8533 35.3518 24.8159C35.1875 24.7309 35.0194 24.6487 34.8522 24.5619C33.1348 23.6514 31.7938 22.5027 30.8636 21.1411C30.5995 20.7578 30.3704 20.3515 30.1791 19.9271C30.0997 19.7001 30.1034 19.5712 30.1604 19.4536C30.2169 19.3629 30.2916 19.285 30.3799 19.2248C30.675 19.0296 30.9794 18.8316 31.1858 18.6981C31.5538 18.4599 31.8451 18.2713 32.0328 18.1377C32.7379 17.6447 33.231 17.1208 33.5392 16.5352C33.7542 16.1307 33.8796 15.6846 33.9068 15.2272C33.934 14.7699 33.8625 14.3121 33.697 13.8849C33.2301 12.6559 32.0693 11.8929 30.6628 11.8929C30.3662 11.8926 30.0703 11.9239 29.7803 11.9863C29.7028 12.0031 29.6253 12.0209 29.5497 12.0405C29.5627 11.2 29.5441 10.3128 29.4693 9.43962C29.2041 6.36997 28.1292 4.7609 27.0086 3.47776C26.2909 2.67368 25.4457 1.99341 24.5067 1.46432C22.8061 0.493087 20.8777 0 18.7755 0C16.6734 0 14.7543 0.493087 13.0518 1.46432C12.1106 1.99357 11.2636 2.67521 10.5453 3.48149C9.42462 4.76464 8.34973 6.37651 8.08451 9.44336C8.0098 10.3165 7.99112 11.2084 8.00326 12.0442C7.92762 12.0246 7.85104 12.0069 7.77353 11.99C7.4835 11.9277 7.18766 11.8964 6.89101 11.8967C5.48366 11.8967 4.32099 12.6596 3.85592 13.8886C3.68968 14.316 3.6174 14.7742 3.64399 15.232C3.67058 15.6898 3.79541 16.1365 4.01 16.5418C4.31912 17.1273 4.8122 17.6512 5.51728 18.1443C5.70406 18.275 5.99636 18.4637 6.36431 18.7046C6.56322 18.8335 6.85366 19.0221 7.13849 19.2108C7.23814 19.2752 7.32285 19.3602 7.3869 19.4601C7.44667 19.5825 7.44854 19.7141 7.35982 19.9569C7.17112 20.3724 6.94579 20.7703 6.68649 21.1458C5.7769 22.4765 4.47508 23.6047 2.81278 24.5077C1.93213 24.9747 1.01693 25.2866 0.630307 26.3372C0.338937 27.13 0.529448 28.0322 1.27001 28.7923C1.54181 29.0761 1.85704 29.3147 2.20389 29.4993C2.92558 29.8959 3.69299 30.2029 4.48908 30.4136C4.65337 30.4559 4.80933 30.5257 4.95042 30.6199C5.22031 30.8562 5.18202 31.212 5.54156 31.7331C5.72204 32.0024 5.95137 32.2356 6.21769 32.4205C6.97226 32.9416 7.82022 32.9742 8.71861 33.0088C9.53015 33.0396 10.45 33.0751 11.5006 33.4216C11.9358 33.5654 12.3878 33.8437 12.9117 34.1687C14.1696 34.9419 15.8917 36 18.7737 36C21.6556 36 23.3898 34.9363 24.6571 34.1603C25.1772 33.8409 25.6264 33.5654 26.0495 33.4253C27.1001 33.0779 28.02 33.0434 28.8315 33.0125C29.7299 32.978 30.5779 32.9453 31.3324 32.4242C31.6478 32.2043 31.9106 31.9172 32.1019 31.5837C32.3606 31.1438 32.3541 30.8366 32.5969 30.6218C32.7293 30.5321 32.8757 30.4651 33.0302 30.4238C33.8372 30.2125 34.615 29.9027 35.3462 29.5012C35.7147 29.3035 36.0464 29.0438 36.3268 28.7335L36.3361 28.7223C37.0309 27.9789 37.2056 27.103 36.9207 26.3297ZM34.3591 27.7062C32.7967 28.5691 31.7583 28.4767 30.9505 28.9969C30.2641 29.4386 30.6703 30.3911 30.1716 30.7348C29.559 31.1579 27.7482 30.7049 25.4088 31.4772C23.4795 32.1151 22.2486 33.9492 18.7783 33.9492C15.308 33.9492 14.1061 32.1188 12.145 31.4726C9.81031 30.7003 7.99579 31.1532 7.38223 30.7301C6.88448 30.3865 7.28885 29.4339 6.60338 28.9922C5.79464 28.472 4.75617 28.5645 3.19473 27.7062C2.20015 27.1571 2.76421 26.8172 3.09574 26.6566C8.75503 23.9166 9.65809 19.6861 9.69825 19.3723C9.74681 18.9922 9.80097 18.6934 9.3826 18.3068C8.97823 17.9332 7.18425 16.8229 6.68649 16.4754C5.86282 15.9002 5.50047 15.3258 5.76756 14.6198C5.95434 14.1314 6.41007 13.9474 6.88821 13.9474C7.03933 13.9479 7.18995 13.9648 7.33741 13.9979C8.2414 14.194 9.11924 14.6469 9.62634 14.7693C9.6874 14.7849 9.75008 14.7934 9.81311 14.7945C10.0839 14.7945 10.1792 14.6581 10.1605 14.3481C10.1026 13.3591 9.96253 11.4316 10.1185 9.63013C10.3323 7.15163 11.1308 5.92358 12.0796 4.83748C12.5354 4.31544 14.6767 2.05266 18.7718 2.05266C22.8668 2.05266 25.0138 4.3061 25.4695 4.82627C26.4193 5.91237 27.2187 7.14042 27.4307 9.61893C27.5866 11.4204 27.4522 13.3488 27.3887 14.3369C27.3672 14.6628 27.4652 14.7833 27.7361 14.7833C27.7991 14.7823 27.8618 14.7738 27.9228 14.758C28.4309 14.6357 29.3087 14.1828 30.2127 13.9867C30.3602 13.9536 30.5108 13.9367 30.6619 13.9362C31.1428 13.9362 31.5958 14.123 31.7826 14.6086C32.0496 15.3146 31.6892 15.889 30.8646 16.4642C30.3668 16.8116 28.5728 17.9211 28.1684 18.2956C27.7491 18.6822 27.8042 18.981 27.8528 19.3611C27.893 19.6796 28.7951 23.91 34.4553 26.6454C34.7896 26.8125 35.3537 27.1525 34.3591 27.7062Z" fill="#000008"/>
</svg>
