<svg width="175" height="20" viewBox="0 0 175 20" fill="none" xmlns="http://www.w3.org/2000/svg">
<path d="M41.1851 17.8962C42.3079 16.8494 42.9826 15.4091 43.0684 13.8765C43.0914 13.0979 42.9581 12.3226 42.6749 11.597C42.3916 10.8713 41.9651 10.2102 41.4207 9.65315C40.8762 9.09605 40.2251 8.65438 39.5062 8.35451C38.7873 8.05464 38.0153 7.90272 37.2364 7.90782C36.7172 7.90593 36.2002 7.97638 35.7004 8.11713C35.4202 6.81379 34.8726 5.58278 34.0922 4.50196C33.3118 3.42114 32.3156 2.51403 31.1666 1.838C29.6941 0.960434 28.0115 0.498068 26.2973 0.500006C23.4916 0.500006 22.1597 1.42371 22.1597 1.42371C21.9139 1.53005 21.706 1.70819 21.5632 1.93476C21.4204 2.16133 21.3495 2.42577 21.3596 2.69338V18.2866C21.3614 18.6053 21.4885 18.9106 21.7134 19.1365C21.9384 19.3624 22.2431 19.4908 22.5618 19.4939H37.0435C38.5785 19.5155 40.0624 18.9431 41.1851 17.8962Z" fill="#FF5500"/>
<path d="M19.552 19.0632C20.3062 13.7917 19.9888 8.96818 19.552 3.67936C19.5728 3.50032 19.4872 3.32475 19.3349 3.22961C19.2602 3.18187 19.1734 3.15632 19.0847 3.15594C18.996 3.15556 18.909 3.18036 18.8338 3.22746C18.7586 3.27456 18.6983 3.34202 18.66 3.42202C18.6216 3.50201 18.6067 3.59125 18.6171 3.67936C18.2192 8.92235 17.9139 13.8367 18.6171 19.0632C18.6302 19.178 18.6851 19.284 18.7713 19.361C18.8575 19.4379 18.969 19.4804 19.0846 19.4804C19.2001 19.4804 19.3116 19.4379 19.3978 19.361C19.4841 19.284 19.5389 19.178 19.552 19.0632Z" fill="#FF5500"/>
<path d="M16.4565 19.3715C16.5461 19.2936 16.6045 19.186 16.6209 19.0684C17.2064 14.5623 17.209 10 16.627 5.4939C16.6145 5.37254 16.5574 5.26013 16.4668 5.1784C16.3763 5.09667 16.2586 5.05143 16.1366 5.05143C16.0146 5.05143 15.8969 5.09667 15.8063 5.1784C15.7157 5.26013 15.6587 5.37254 15.6462 5.4939C15.1221 10.0036 15.1221 14.5588 15.6462 19.0684C15.6627 19.186 15.721 19.2936 15.8106 19.3715C15.9002 19.4494 16.0149 19.4923 16.1336 19.4923C16.2522 19.4923 16.3669 19.4494 16.4565 19.3715Z" fill="#FF5500"/>
<path d="M13.6803 19.0572C14.3774 14.2224 14.1612 9.88065 13.6855 5.03465C13.6595 4.79248 13.4546 4.61085 13.2124 4.61085C12.9694 4.61085 12.7652 4.79248 12.7393 5.03465C12.2913 9.81837 12.0647 14.2847 12.7393 19.0572C12.7466 19.177 12.7993 19.2896 12.8867 19.3719C12.9742 19.4542 13.0897 19.5 13.2098 19.5C13.3299 19.5 13.4454 19.4542 13.5329 19.3719C13.6203 19.2896 13.673 19.177 13.6803 19.0572Z" fill="#FF5500"/>
<path d="M10.584 19.3739C10.6721 19.2969 10.7292 19.1905 10.7449 19.0745C11.3314 14.8705 11.3363 10.6059 10.7613 6.40031C10.7613 6.27106 10.7099 6.14709 10.6186 6.05569C10.5272 5.96429 10.4032 5.91295 10.2739 5.91295C10.1447 5.91295 10.0207 5.96429 9.92931 6.05569C9.83791 6.14709 9.78657 6.27106 9.78657 6.40031C9.24514 10.6077 9.24514 14.8671 9.78657 19.0745C9.80219 19.1905 9.85936 19.2969 9.94748 19.3739C10.0356 19.451 10.1487 19.4934 10.2657 19.4934C10.3828 19.4934 10.4958 19.451 10.584 19.3739Z" fill="#FF5500"/>
<path d="M7.78002 19.1082C8.21593 15.7585 8.55064 12.8559 7.8077 9.56929C7.80045 9.4465 7.74659 9.33112 7.65713 9.24671C7.56767 9.1623 7.44936 9.11523 7.32636 9.11512C7.20337 9.11501 7.08497 9.16186 6.99536 9.24611C6.90575 9.33036 6.85168 9.44565 6.84421 9.56842C6.14711 12.8334 6.47577 15.8043 6.87189 19.1082C6.88954 19.2159 6.94489 19.3138 7.02806 19.3845C7.11124 19.4551 7.21682 19.4939 7.32596 19.4939C7.43509 19.4939 7.54067 19.4551 7.62385 19.3845C7.70702 19.3138 7.76238 19.2159 7.78002 19.1082Z" fill="#FF5500"/>
<path d="M4.86016 18.6662C5.33585 15.288 5.55812 12.4373 4.87746 9.07024C4.86229 8.94939 4.80352 8.83823 4.71219 8.75765C4.62085 8.67706 4.50324 8.63259 4.38144 8.63259C4.25964 8.63259 4.14203 8.67706 4.0507 8.75765C3.95937 8.83823 3.9006 8.94939 3.88543 9.07024C3.2679 12.4027 3.47201 15.339 3.90273 18.6662C3.94856 19.1705 4.80394 19.1653 4.86016 18.6662Z" fill="#FF5500"/>
<path d="M1.89099 17.0394C2.38917 14.75 2.63307 12.9355 1.91953 10.7023H1.91867C1.90828 10.578 1.85156 10.4622 1.75977 10.3777C1.66798 10.2933 1.54781 10.2464 1.42309 10.2464C1.29837 10.2464 1.1782 10.2933 1.08641 10.3777C0.994614 10.4622 0.9379 10.578 0.927506 10.7023C0.360139 12.9415 0.535712 14.795 0.965562 17.0394C0.975585 17.1552 1.02867 17.263 1.11434 17.3416C1.20001 17.4202 1.31203 17.4638 1.42828 17.4638C1.54452 17.4638 1.65654 17.4202 1.74221 17.3416C1.82788 17.263 1.88097 17.1552 1.89099 17.0394Z" fill="#FF5500"/>
<path d="M96.1765 11.6308V3.40549H98.7292V16.3108H96.4601L91.7802 9.21995C91.4966 8.79451 91.0711 8.08542 90.9293 7.80179V16.3108H88.3766V3.40549H90.7875L95.3256 10.2127C95.6092 10.6381 96.0347 11.3472 96.1765 11.6308Z" fill="#FF5500"/>
<path fill-rule="evenodd" clip-rule="evenodd" d="M105.962 16.3108H102.133V3.5473H106.245C109.933 3.5473 112.627 5.2491 112.627 9.92903C112.627 14.4672 109.224 16.3108 105.962 16.3108ZM106.104 5.95818H104.685V13.8999H105.962C108.656 13.8999 109.933 12.3399 109.933 9.92903C109.933 7.23453 108.798 5.95818 106.104 5.95818Z" fill="#FF5500"/>
<path d="M127.518 16.3108V3.40549H130.212V13.7581H135.318V16.3108H127.518Z" fill="#FF5500"/>
<path fill-rule="evenodd" clip-rule="evenodd" d="M167.652 16.3108H163.823V3.5473H167.935C171.197 3.5473 173.608 4.82365 174.175 8.22724V11.489C173.466 14.8926 170.488 16.3108 167.652 16.3108ZM167.793 5.95818H166.375V13.8999H167.652C170.346 13.8999 171.622 12.3399 171.622 9.92903C171.622 7.23453 170.488 5.95818 167.793 5.95818Z" fill="#FF5500"/>
<path d="M53.3482 10.9217C51.0791 10.3545 49.3773 9.6454 49.3773 7.09271C49.3773 4.82365 51.2209 3.40549 53.6318 3.40549H54.0572C56.0427 3.40549 57.4608 4.11457 58.7372 5.39091L56.8936 7.23453C56.0427 6.38363 55.0499 5.95818 53.9154 5.95818C52.4973 5.95818 52.0718 6.52544 52.0718 7.09271C52.0718 7.94361 52.6391 8.22724 54.6245 8.65269C56.6099 9.07814 58.879 9.78722 58.879 12.6235C58.879 15.0344 57.319 16.7362 53.7736 16.7362C51.6464 16.7362 49.8028 15.7435 48.8101 14.3253L50.6537 12.6235C51.5046 13.6163 52.6391 14.0417 53.9154 14.0417C55.4754 14.0417 56.1845 13.6163 56.1845 12.6235C56.1845 11.7726 55.759 11.489 53.3482 10.9217Z" fill="#FF5500"/>
<path fill-rule="evenodd" clip-rule="evenodd" d="M66.3952 16.5944C62.9916 16.5944 60.8644 13.8999 60.8644 9.92903C60.8644 5.95818 62.9916 3.26367 66.3952 3.26367C69.9406 3.26367 72.0678 5.95818 72.0678 9.92903C72.0678 13.8999 69.9406 16.5944 66.3952 16.5944ZM66.537 5.81636C64.4098 5.81636 63.5589 7.65997 63.5589 9.92903C63.5589 12.1981 64.4098 14.0417 66.537 14.0417C68.6642 14.0417 69.5151 12.1981 69.5151 9.92903C69.5151 7.65997 68.6642 5.81636 66.537 5.81636Z" fill="#FF5500"/>
<path d="M82.5622 10.6381V3.26367H85.1149V10.4963C85.1149 14.3253 83.1294 16.4526 79.8677 16.4526C76.7477 16.4526 74.6205 14.3253 74.6205 10.6381V3.40549H77.1732V10.6381C77.1732 12.7654 78.1659 14.0417 79.8677 14.0417C81.5695 14.0417 82.5622 12.7654 82.5622 10.6381Z" fill="#FF5500"/>
<path d="M120.427 16.5944C117.023 16.5944 114.754 14.0417 114.754 9.92903C114.754 5.95818 117.165 3.26367 120.569 3.26367C122.98 3.26367 124.398 4.3982 125.249 6.1L122.838 7.23453C122.271 6.38363 121.561 5.81636 120.427 5.81636C118.583 5.81636 117.449 7.51816 117.449 9.92903C117.449 12.3399 118.583 14.0417 120.569 14.0417C121.703 14.0417 122.412 13.4744 123.121 12.3399L125.249 13.6163C124.256 15.4599 122.838 16.5944 120.427 16.5944Z" fill="#FF5500"/>
<path fill-rule="evenodd" clip-rule="evenodd" d="M141.983 16.5944C138.579 16.5944 136.452 13.8999 136.452 9.92903C136.452 5.95818 138.579 3.26367 141.983 3.26367C145.387 3.26367 147.514 5.95818 147.514 9.92903C147.514 13.8999 145.528 16.5944 141.983 16.5944ZM142.125 5.81636C139.998 5.81636 139.147 7.65997 139.147 9.92903C139.147 12.1981 139.998 14.0417 142.125 14.0417C144.252 14.0417 145.103 12.1981 145.103 9.92903C145.103 7.65997 144.252 5.81636 142.125 5.81636Z" fill="#FF5500"/>
<path d="M158.008 10.6381V3.26367H160.561V10.4963C160.561 14.3253 158.575 16.4526 155.314 16.4526C152.194 16.4526 150.066 14.3253 150.066 10.6381V3.40549H152.619V10.6381C152.619 12.7654 153.612 14.0417 155.314 14.0417C157.015 14.0417 158.008 12.7654 158.008 10.6381Z" fill="#FF5500"/>
</svg>
