<svg width="98" height="30" viewBox="0 0 98 30" fill="none" xmlns="http://www.w3.org/2000/svg">
<path fill-rule="evenodd" clip-rule="evenodd" d="M14.6916 0.5C6.57783 0.5 0 7.07772 0 15.1916C0 23.3061 6.57783 29.8835 14.6916 29.8835C22.8059 29.8835 29.3834 23.3061 29.3834 15.1916C29.3834 7.07772 22.8059 0.5 14.6916 0.5ZM23.3822 13.5246C18.6465 10.7121 10.835 10.4535 6.31415 11.8258C5.58801 12.046 4.8203 11.6361 4.60048 10.9102C4.38031 10.1837 4.78978 9.41649 5.51626 9.19579C10.706 7.62053 19.333 7.92491 24.7848 11.1612C25.438 11.5488 25.6522 12.3921 25.265 13.044C24.8776 13.697 24.0336 13.9123 23.3822 13.5246ZM23.2271 17.6902C22.895 18.2293 22.1901 18.3982 21.6517 18.0674C17.7035 15.6405 11.6829 14.9374 7.01186 16.3553C6.40625 16.5384 5.76643 16.1968 5.5824 15.5923C5.39994 14.9865 5.74152 14.3479 6.34625 14.1637C11.6822 12.5444 18.3156 13.3286 22.8503 16.1154C23.3887 16.447 23.5582 17.1523 23.2271 17.6902ZM21.4294 21.6907C21.1656 22.1235 20.6017 22.2593 20.1705 21.9954C16.7204 19.8868 12.3779 19.4105 7.26396 20.5788C6.77116 20.6918 6.27994 20.3828 6.16766 19.8902C6.05467 19.3974 6.36239 18.9063 6.85625 18.7939C12.4527 17.5146 17.2533 18.0651 21.1257 20.4314C21.5575 20.6951 21.6935 21.2591 21.4294 21.6907Z" fill="#1ED760"/>
<path d="M39.9703 14.0631C37.4336 13.458 36.9819 13.0335 36.9819 12.1415C36.9819 11.2987 37.7756 10.7315 38.9556 10.7315C40.0994 10.7315 41.2334 11.1624 42.4227 12.0491C42.4587 12.0757 42.5038 12.0866 42.5481 12.0796C42.5925 12.0729 42.6317 12.0485 42.6578 12.0119L43.8964 10.2659C43.9473 10.194 43.9334 10.0949 43.8648 10.0399C42.4496 8.90416 40.8559 8.35205 38.9931 8.35205C36.2542 8.35205 34.341 9.99574 34.341 12.3475C34.341 14.8696 35.9914 15.7624 38.8433 16.4517C41.2706 17.0108 41.6803 17.4792 41.6803 18.3166C41.6803 19.2445 40.8518 19.8213 39.5187 19.8213C38.0382 19.8213 36.8303 19.3226 35.4793 18.1526C35.4458 18.1238 35.3998 18.1105 35.3573 18.1129C35.3128 18.1166 35.2719 18.1373 35.2435 18.1715L33.8547 19.8243C33.7965 19.8929 33.8039 19.9954 33.871 20.0547C35.4431 21.458 37.3763 22.1994 39.4626 22.1994C42.4139 22.1994 44.3211 20.5866 44.3211 18.0906C44.3211 15.9813 43.0608 14.8147 39.9703 14.0631Z" fill="#1ED760"/>
<path fill-rule="evenodd" clip-rule="evenodd" d="M47.8055 13.0974C48.6707 12.065 49.72 11.5613 50.9993 11.5613C53.3763 11.5613 55.7826 13.3915 55.7826 16.8902C55.7826 20.3879 53.3763 22.2178 50.9993 22.2178C49.7203 22.2178 48.6709 21.7434 47.8055 20.7722V24.8479C47.8055 24.9397 47.7311 25.0144 47.6393 25.0144H45.3681C45.2764 25.0144 45.2021 24.9397 45.2021 24.8479V11.9353C45.2021 11.8437 45.2764 11.769 45.3681 11.769H47.6393C47.7311 11.769 47.8055 11.8437 47.8055 11.9353V13.0974ZM50.4735 19.9143C52.0445 19.9143 53.1417 18.6713 53.1417 16.8902C53.1417 15.1376 52.0193 13.866 50.4735 13.866C48.9204 13.866 47.7488 15.1657 47.7488 16.8902C47.7488 18.6148 48.9204 19.9143 50.4735 19.9143Z" fill="#1ED760"/>
<path fill-rule="evenodd" clip-rule="evenodd" d="M61.9506 11.5613C58.8894 11.5613 56.4912 13.9185 56.4912 16.9281C56.4912 19.9051 58.8729 22.2376 61.9131 22.2376C64.9852 22.2376 67.3907 19.8883 67.3907 16.8902C67.3907 13.9018 65.0016 11.5613 61.9506 11.5613ZM61.9506 19.9329C60.3224 19.9329 59.0949 18.6246 59.0949 16.8902C59.0949 15.1483 60.2799 13.8843 61.9131 13.8843C63.5518 13.8843 64.7876 15.1925 64.7876 16.9281C64.7876 18.6697 63.5945 19.9329 61.9506 19.9329Z" fill="#1ED760"/>
<path d="M71.4284 11.769H73.9278C74.0196 11.769 74.0935 11.8438 74.0935 11.9354V13.8875C74.0935 13.9792 74.0196 14.054 73.9278 14.054H71.4284V18.7491C71.4284 19.4906 71.7537 19.8213 72.4822 19.8213C72.955 19.8213 73.378 19.7198 73.8156 19.4996C73.8663 19.4745 73.9278 19.4761 73.9773 19.5071C74.0263 19.5373 74.0563 19.5913 74.0563 19.6487V21.5076C74.0563 21.5669 74.024 21.6227 73.9722 21.6517C73.3352 22.0129 72.6593 22.1812 71.8445 22.1812C69.8409 22.1812 68.8249 21.1462 68.8249 19.105V14.054H67.7328C67.6412 14.054 67.5674 13.9792 67.5674 13.8875V11.9354C67.5674 11.8438 67.6412 11.769 67.7328 11.769H68.8249V9.21343C68.8249 9.12186 68.8996 9.04712 68.9916 9.04712H71.2626C71.3544 9.04712 71.4284 9.12186 71.4284 9.21343V11.769Z" fill="#1ED760"/>
<path d="M82.6361 11.7788V11.465C82.6361 10.5416 82.9902 10.1299 83.7842 10.1299C84.2577 10.1299 84.6381 10.2241 85.064 10.366C85.1165 10.3825 85.1712 10.3743 85.2138 10.343C85.2577 10.3116 85.2824 10.2613 85.2824 10.2079V8.29391C85.2824 8.22076 85.2354 8.15584 85.1651 8.13444C84.7151 8.00058 84.1393 7.86304 83.2772 7.86304C81.1791 7.86304 80.0704 9.04462 80.0704 11.2783V11.759H78.9792C78.8876 11.759 78.8125 11.8337 78.8125 11.9255V13.8874C78.8125 13.9792 78.8876 14.0539 78.9792 14.0539H80.0704V21.845C80.0704 21.9367 80.1444 22.0113 80.236 22.0113H82.5072C82.599 22.0113 82.6737 21.9367 82.6737 21.845V14.0539H84.7944L88.0429 21.8429C87.6742 22.6613 87.3115 22.8241 86.8165 22.8241C86.4163 22.8241 85.9949 22.7046 85.564 22.4688C85.5235 22.4465 85.4756 22.4429 85.4317 22.4564C85.3884 22.4718 85.3519 22.5039 85.3335 22.5462L84.5637 24.2351C84.527 24.315 84.5582 24.4087 84.6351 24.4501C85.4387 24.8853 86.1644 25.0711 87.0608 25.0711C88.738 25.0711 89.665 24.2897 90.4824 22.1879L94.4229 12.0057C94.4425 11.9544 94.4367 11.8965 94.4053 11.8511C94.3741 11.806 94.3237 11.7788 94.2687 11.7788H91.9041C91.8334 11.7788 91.7699 11.8239 91.7467 11.8904L89.3245 18.8092L86.6714 11.8858C86.6472 11.8215 86.5852 11.7788 86.5163 11.7788H82.6361Z" fill="#1ED760"/>
<path d="M75.3167 11.7688H77.5881C77.6797 11.7688 77.7544 11.8435 77.7544 11.9351V21.8448C77.7544 21.9365 77.6797 22.0111 77.5881 22.0111H75.3167C75.225 22.0111 75.1504 21.9365 75.1504 21.8448V11.9351C75.1504 11.8435 75.225 11.7688 75.3167 11.7688Z" fill="#1ED760"/>
<path d="M76.463 7.25708C75.5633 7.25708 74.833 7.9855 74.833 8.88533C74.833 9.78568 75.5633 10.515 76.463 10.515C77.3624 10.515 78.0919 9.78568 78.0919 8.88533C78.0919 7.9855 77.3624 7.25708 76.463 7.25708Z" fill="#1ED760"/>
<path fill-rule="evenodd" clip-rule="evenodd" d="M97.175 14.1445L96.7229 13.5114C96.9533 13.4449 97.1122 13.2768 97.1122 13.0017C97.1122 12.6661 96.8557 12.4666 96.4661 12.4666H95.7178V14.1445H96.037V13.5638H96.3868L96.7938 14.1445H97.175ZM96.037 12.7544H96.4531C96.6608 12.7544 96.7849 12.847 96.7849 13.0196C96.7849 13.1835 96.6608 13.2851 96.4531 13.2851H96.037V12.7544Z" fill="#1ED760"/>
<path fill-rule="evenodd" clip-rule="evenodd" d="M94.7617 13.3561C94.7617 14.2328 95.4612 14.9547 96.3601 14.9547C97.2589 14.9547 97.9669 14.2238 97.9669 13.347C97.9669 12.471 97.2673 11.7493 96.3685 11.7493C95.4703 11.7493 94.7617 12.4794 94.7617 13.3561ZM94.9301 13.3561C94.9301 12.5591 95.5498 11.9082 96.3685 11.9082C97.1833 11.9082 97.7989 12.5505 97.7989 13.347C97.7989 14.1445 97.1787 14.7949 96.3601 14.7949C95.5454 14.7949 94.9301 14.1528 94.9301 13.3561Z" fill="#1ED760"/>
</svg>
