<svg width="150" height="50" viewBox="0 0 150 50" fill="none" xmlns="http://www.w3.org/2000/svg">
<path d="M85.609 33.3866C85.0404 33.2806 84.4997 33.1199 83.948 32.953C83.944 32.3652 83.995 31.7544 84.1055 31.1968C89.0623 32.6476 90.2107 31.6977 90.2953 28.4831V27.7108L89.6553 28.304C88.8225 29.0758 88.0073 29.3517 86.7925 29.2726C84.3792 29.1155 83.0427 27.326 83.0388 24.2464C83.0365 22.4049 83.4377 21.2351 84.4474 20.1403C85.7943 18.6801 88.0993 18.3992 89.7109 19.4991L90.2953 19.898V19.4803V19.0627L91.3334 19.0975L92.3715 19.1324L92.4058 23.2834C92.4593 29.7551 92.2725 31.0187 91.0807 32.2504C89.4827 33.6181 87.8499 33.6134 85.609 33.3866ZM88.7496 27.0148C89.0254 26.872 89.486 26.5357 89.7732 26.2672L90.2953 25.7792V23.7598V21.7404L89.9235 21.4232C88.6514 20.3376 87.284 20.2551 86.2511 21.2015C85.5812 21.8151 85.2861 22.7011 85.2771 24.1253C85.2663 25.8456 85.6316 26.7169 86.5464 27.1522C87.1524 27.4406 88.0327 27.3857 88.7496 27.0148ZM58.7271 28.3775C57.5145 27.2044 56.9438 25.3669 57.1866 23.4179C57.3839 21.8346 57.86 20.8023 58.7966 19.9267C59.5397 19.2321 60.2378 18.9401 61.3384 18.8636C64.0189 18.6773 65.6081 20.5316 65.616 23.8547L65.6182 24.7269C63.572 24.7823 61.2324 24.5961 59.3303 24.8856C59.6085 26.6726 60.8821 28.0086 62.6522 28.0351C63.7158 28.0351 64.4809 27.7614 65.5035 27.5569L65.5346 29.2026C65.5346 29.2026 63.1465 29.7777 62.237 29.7708C60.8411 29.7765 59.5159 29.1338 58.7271 28.3775ZM63.4818 22.7116C63.4796 21.687 62.8226 20.7247 62.0207 20.5721C60.7549 20.3313 59.785 21.0754 59.467 22.5312L59.3553 23.0425H61.4189H63.4825L63.4818 22.7116ZM74.2691 28.3775C73.0565 27.2044 72.4857 25.3669 72.7285 23.4179C72.9258 21.8346 73.4019 20.8023 74.3385 19.9267C75.0816 19.2321 75.7797 18.9401 76.8803 18.8636C79.5608 18.6773 81.15 20.5316 81.1579 23.8547L81.1601 24.7269C78.9764 24.6983 76.8844 24.7075 74.8172 24.6904C74.9404 26.8006 76.2848 28.1444 78.1941 28.0351C79.2677 28.0563 80.21 27.7597 81.0454 27.557C81.2311 27.6734 81.1858 29.0075 80.9906 29.1718C80.721 29.3987 78.6884 29.7778 77.7789 29.7709C76.3831 29.7766 75.0577 29.1338 74.2691 28.3775ZM79.0238 22.7116C79.0215 21.687 78.3645 20.7247 77.5626 20.5721C76.2969 20.3313 75.3269 21.0754 75.0089 22.5312L74.8972 23.0425H76.9608H79.0244L79.0238 22.7116ZM103.909 29.6159C102.424 29.0542 101.693 27.4349 102.18 25.7866C102.375 25.1277 103.118 24.3172 103.871 23.9438C104.583 23.5907 106.023 23.2936 107.053 23.2873L107.735 23.2816V22.4334C107.695 20.142 105.91 20.2911 104.148 20.9398C103.674 21.1127 103.055 21.2557 102.941 21.2915C102.927 20.7539 102.871 20.3847 102.871 19.5622L103.85 19.2482C104.502 19.0389 105.225 18.9112 106.018 18.8654C107.92 18.7555 108.949 19.1787 109.55 20.3189C109.797 20.7876 109.814 21.0029 109.871 24.2046C109.93 27.5883 109.931 27.5947 110.218 27.9044C110.39 28.0902 111.02 28.2705 111.213 28.2705C111.208 28.9768 111.288 28.9479 111.204 29.6105C110.927 29.6861 110.007 29.78 109.664 29.7512C108.991 29.6946 108.575 29.4087 108.254 28.7839L108.083 28.4508L107.642 28.8085C106.625 29.6341 104.929 30.0002 103.909 29.6144L103.909 29.6159ZM106.402 27.8053C106.663 27.7117 107.07 27.5087 107.305 27.3542L107.732 27.0732V25.8399V24.6066H107.224C106.027 24.6066 104.601 25.2294 104.309 25.88C103.987 26.5968 104.257 27.4484 104.909 27.7743C105.394 28.0169 105.785 28.025 106.399 27.8052L106.402 27.8053ZM49.3643 23.2831V17.0266H46.9321H44.5V16.1844V15.3422H50.4913H56.4827V16.1844V17.0266H54.0506H51.6184V23.2831V29.5397H50.4913H49.3643V23.2831ZM68.2281 22.0198V14.5H69.2959H70.3636V22.0198V29.5397H69.2959H68.2281V22.0198ZM95.3968 24.3058V19.0627C96.0889 19.0861 96.8085 19.0535 97.5005 19.0764C97.4938 19.5093 97.5191 19.9405 97.5439 20.3723C98.5173 19.2877 99.5497 19.0086 100.414 18.9152L101.21 18.8314V19.8628V20.8942C99.8753 20.4967 98.4839 21.3915 97.8478 22.2605C97.6035 22.6048 97.5889 22.7795 97.5323 26.0505L97.473 29.4796C96.7809 29.503 96.0888 29.5258 95.3968 29.5493L95.3968 24.3058ZM113.074 24.3058V19.0721C113.786 19.0721 114.498 19.0721 115.21 19.0721C115.21 19.5512 115.21 20.3875 115.21 20.8667C116.11 19.8399 117.2 18.8732 118.413 18.8915C119.896 18.8325 120.503 19.8044 121.165 20.883C123.019 18.7659 126.4 18.1575 127.445 20.6755C127.546 24.1144 127.487 25.3905 127.434 29.5355C126.746 29.559 126.113 29.5263 125.424 29.5492C125.456 26.8742 125.418 23.8502 125.353 21.3383C125.089 20.8119 124.6 20.3983 123.755 20.6247C122.911 20.8511 122.147 21.5175 121.351 22.4586C121.351 24.7912 121.379 27.2075 121.379 29.5401H120.316H119.252C119.23 26.8062 119.207 24.0723 119.184 21.3384C118.758 20.8382 118.417 20.5453 117.612 20.7399C116.807 20.9345 115.737 21.5802 115.21 22.6048C115.21 24.9165 115.182 27.2284 115.182 29.5401C114.47 29.5401 113.786 29.5401 113.074 29.5401C113.074 27.7953 113.074 26.0506 113.074 24.3058Z" fill="#000008"/>
<path d="M24.5 37C31.6797 37 37.5 31.1797 37.5 24C37.5 16.8203 31.6797 11 24.5 11C17.3203 11 11.5 16.8203 11.5 24C11.5 31.1797 17.3203 37 24.5 37Z" fill="url(#paint0_linear_2824_54607)"/>
<path fill-rule="evenodd" clip-rule="evenodd" d="M17.3846 23.8629C21.1744 22.2118 23.7015 21.1233 24.9659 20.5973C28.5761 19.0957 29.3263 18.8349 29.8153 18.8263C29.9228 18.8244 30.1633 18.851 30.319 18.9774C30.4505 19.0841 30.4867 19.2283 30.5041 19.3295C30.5214 19.4306 30.5429 19.6611 30.5258 19.8412C30.3301 21.8968 29.4836 26.8853 29.0529 29.1876C28.8707 30.1618 28.5119 30.4884 28.1645 30.5204C27.4096 30.5898 26.8363 30.0215 26.1051 29.5422C24.961 28.7921 24.3146 28.3252 23.204 27.5934C21.9205 26.7476 22.7525 26.2827 23.484 25.523C23.6754 25.3241 27.0017 22.2986 27.066 22.0242C27.0741 21.9899 27.0816 21.8619 27.0055 21.7943C26.9295 21.7268 26.8173 21.7499 26.7364 21.7683C26.6216 21.7943 24.7938 23.0024 21.2529 25.3926C20.7341 25.7489 20.2642 25.9225 19.8431 25.9134C19.3789 25.9034 18.4861 25.6509 17.8223 25.4352C17.0082 25.1705 16.3611 25.0306 16.4175 24.5812C16.4468 24.3471 16.7692 24.1077 17.3846 23.8629Z" fill="white"/>
<defs>
<linearGradient id="paint0_linear_2824_54607" x1="1311.5" y1="11" x2="1311.5" y2="2591.72" gradientUnits="userSpaceOnUse">
<stop stop-color="#2AABEE"/>
<stop offset="1" stop-color="#229ED9"/>
</linearGradient>
</defs>
</svg>
