<svg width="85" height="25" viewBox="0 0 85 25" fill="none" xmlns="http://www.w3.org/2000/svg">
<path d="M26.9589 2.36828C26.9304 3.07516 26.5756 3.75349 25.8936 4.40319C25.127 5.13748 24.2184 5.50473 23.168 5.50473C21.5499 5.50473 20.7684 4.79898 20.8257 3.38635C20.853 2.65206 21.2862 1.94518 22.1238 1.26684C22.9614 0.589733 23.8911 0.25 24.9141 0.25C25.5103 0.25 26.0069 0.483983 26.4051 0.949486C26.8021 1.41612 26.9863 1.88912 26.9589 2.36828Z" fill="#17B7EA"/>
<path fill-rule="evenodd" clip-rule="evenodd" d="M27.8747 21.1513C27.7157 21.3024 27.5523 21.4515 27.3847 21.5985C25.4816 23.2439 23.58 24.0665 21.6783 24.0665C20.7971 24.0665 20.1226 23.7829 19.6546 23.2151C19.1866 22.6477 18.9663 21.9109 18.995 21.0023C19.0223 20.0664 19.3135 18.619 19.8673 16.6611C20.4212 14.7034 20.6987 13.6531 20.6987 13.5111C20.6987 12.7742 20.4424 12.4046 19.9321 12.4046C19.7712 12.4046 19.3324 12.6706 18.6154 13.2002C18.0751 14.8129 16.8991 16.7854 15.0873 19.1173C12.5084 22.47 10.3267 24.1466 8.54207 24.1466C7.43685 24.1466 6.50093 23.126 5.73677 21.0836L4.20589 15.4681C3.63834 13.4268 3.02973 12.405 2.37892 12.405C2.23703 12.405 1.74042 12.7038 0.890333 13.2988L-0.00195312 12.1487C0.933968 11.326 1.85736 10.5033 2.76597 9.67938C4.01421 8.60032 4.95147 8.03287 5.5762 7.97558C7.05226 7.83369 7.96087 8.84303 8.30183 11.0037C8.6702 13.3348 8.92533 14.7847 9.06845 15.3523C9.49411 17.2863 9.96207 18.2523 10.4737 18.2523C10.8706 18.2523 11.4668 17.6249 12.2621 16.3705C13.0561 15.1158 13.4817 14.1613 13.5389 13.5054C13.6523 12.4225 13.2266 11.8798 12.2621 11.8798C11.8077 11.8798 11.3398 11.9844 10.8583 12.191C11.7904 9.13677 13.5714 7.6532 16.1999 7.7378C17.9554 7.7894 18.8749 8.82046 18.9583 10.8311C19.382 10.4472 19.8058 10.0632 20.2295 9.67896C21.4505 8.5999 22.359 8.03245 22.9564 7.97516C23.8924 7.89056 24.5806 8.16561 25.0212 8.80288C25.4605 9.44005 25.6236 10.2664 25.5116 11.2846C25.1419 13.0109 24.7436 15.2025 24.318 17.8609C24.2893 19.0781 24.7299 19.6854 25.6385 19.6854C26.0355 19.6854 26.7448 19.2661 27.7679 18.4249L27.8047 18.3946C27.87 17.8015 27.9748 17.0966 28.1199 16.2804C28.3539 14.9636 28.4846 13.9381 28.512 13.2014C28.5679 12.6923 28.4398 12.4371 28.1286 12.4371C27.9581 12.4371 27.4752 12.7246 26.68 13.2985L25.6582 12.1484C25.8 12.0364 26.6936 11.2124 28.3414 9.67907C29.5336 8.5727 30.3426 8.00515 30.7683 7.9765C31.5064 7.91931 32.1026 8.22414 32.5568 8.89129C33.0111 9.55843 33.2388 10.3325 33.2388 11.2124C33.2388 11.4962 33.2102 11.7662 33.1542 12.0215C33.5799 11.3693 34.0765 10.8005 34.6451 10.3176C35.9508 9.18256 37.4132 8.54272 39.0312 8.40083C40.4226 8.28769 41.4158 8.61377 42.0133 9.3804C42.4948 10.0051 42.7214 10.9001 42.694 12.0638C42.8933 11.8946 43.106 11.709 43.3338 11.51C43.986 10.7432 44.6245 10.1335 45.2492 9.67907C46.2995 8.91243 47.3935 8.48677 48.5285 8.40083C49.8913 8.28769 50.8708 8.61254 51.4671 9.37661C51.9772 9.99899 52.2051 10.8902 52.1491 12.0488C52.1204 12.8416 51.9288 13.9943 51.5741 15.5076C51.218 17.021 51.0413 17.8898 51.0413 18.1162C51.0128 18.7111 51.0701 19.1207 51.2118 19.3471C51.3538 19.5736 51.6935 19.6855 52.2338 19.6855C52.4764 19.6855 52.8356 19.529 53.3118 19.2152C53.267 18.8576 53.2484 18.4859 53.2561 18.0999C53.2835 15.8013 54.3066 13.6157 56.3226 11.5421C58.5368 9.27209 61.1491 8.13574 64.1586 8.13574C66.9414 8.13574 68.4174 9.26952 68.5879 11.5347C68.7011 12.9784 67.9059 14.4656 66.2034 15.9954C64.3851 17.667 62.0988 18.7285 59.3458 19.1814C59.856 19.8895 60.6225 20.2431 61.6456 20.2431C63.6893 20.2431 65.9183 19.7241 68.3327 18.6836C68.4395 18.6385 68.5449 18.5933 68.6489 18.5481C68.6299 18.3748 68.6157 18.1981 68.6063 18.0181C68.4632 15.5798 69.343 13.3396 71.2472 11.2984C73.2909 9.03075 75.8595 7.89697 78.9548 7.89697C80.9415 7.89697 82.4456 8.56412 83.4692 9.89584C84.4342 11.1156 84.8737 12.6887 84.7895 14.6154C84.6755 17.224 83.7104 19.478 81.8932 21.3771C80.076 23.2765 77.8185 24.226 75.1215 24.226C72.8789 24.226 71.1751 23.5029 70.0113 22.0567C69.7494 21.7254 69.5236 21.3685 69.334 20.986C69.0297 21.1749 68.7101 21.3637 68.3752 21.5525C65.3657 23.2824 62.3128 24.1462 59.2188 24.1462C56.9189 24.1462 55.271 23.3795 54.2778 21.8475C54.205 21.7397 54.1361 21.6299 54.0711 21.5179C54.0408 21.5449 54.0104 21.5718 53.9798 21.5986C52.0769 23.244 50.1751 24.0667 48.2735 24.0667C46.4265 24.0667 45.533 23.046 45.5901 21.0024C45.6175 20.0939 45.7955 19.0024 46.1215 17.7254C46.4476 16.4485 46.6257 15.4553 46.6542 14.7459C46.683 13.668 46.3554 13.1279 45.671 13.1279C44.9305 13.1279 44.0481 14.0091 43.0226 15.7688C41.9399 17.6146 41.3549 19.4031 41.2702 21.1343C41.213 22.3565 41.3324 23.2938 41.6287 23.9459C39.6473 24.0032 38.2594 23.6759 37.4679 22.9664C36.7586 22.3416 36.4336 21.3062 36.4909 19.8574C36.5182 18.9489 36.6576 18.0404 36.9091 17.1318C37.1593 16.2233 37.2986 15.4143 37.3272 14.7035C37.3845 13.6532 36.9999 13.1279 36.176 13.1279C35.4641 13.1279 34.6963 13.9381 33.8724 15.5561C33.0485 17.174 32.5929 18.8642 32.5082 20.6241C32.451 22.2147 32.553 23.3212 32.8132 23.9459C30.8642 24.0032 29.4801 23.5923 28.6612 22.7137C28.2872 22.3088 28.0251 21.7881 27.8747 21.1513ZM63.5624 13.0232C63.5897 12.2615 63.2786 11.8794 62.6264 11.8794C61.7752 11.8794 60.9113 12.4657 60.0327 13.6381C59.154 14.8104 58.6998 15.9331 58.6724 17.0059C58.6562 17.0059 58.6562 17.1901 58.6724 17.5572C60.0612 17.0494 61.2661 16.2729 62.2867 15.2273C63.1081 14.3238 63.5336 13.5883 63.5624 13.0232ZM79.6571 12.3427C79.8984 12.9824 80.0051 13.6869 79.9764 14.4548C79.9199 15.8201 79.5082 17.1282 78.7421 18.3801C77.8336 19.8887 76.7396 20.6415 75.4626 20.6415C74.8938 20.6415 74.4533 20.3292 74.1421 19.7031C73.8583 19.1631 73.7303 18.537 73.7588 17.8251C73.8148 16.3751 74.2404 15.0099 75.037 13.7292C75.9729 12.1647 77.1652 11.3818 78.6139 11.3818C79.067 11.3818 79.4148 11.7029 79.6571 12.3427Z" fill="#17B7EA"/>
</svg>
