<svg width="135" height="26" viewBox="0 0 135 26" fill="none" xmlns="http://www.w3.org/2000/svg">
<path d="M97.382 10.9202C96.8678 13.5324 96.4769 16.7204 96.2712 18.0367H96.1273C95.9627 16.6792 95.5719 13.5116 95.037 10.941L93.721 4.54446H89.7101V21.8004H92.199V7.57619L92.4457 8.90479L94.9755 21.8004H97.4641L99.9528 8.90479L100.22 7.56837L100.22 21.8004H102.709V4.54446H98.6571L97.382 10.9202Z" fill="#242729"/>
<path d="M109.435 19.2088C109.209 19.6821 108.715 20.0111 108.221 20.0111C107.645 20.0111 107.419 19.5585 107.419 18.4479V9.19272H104.581V18.6125C104.581 20.9366 105.342 22.0059 107.028 22.0059C108.18 22.0059 109.106 21.492 109.743 20.2578H109.805L110.052 21.8004H112.273V9.19272H109.435V19.2088Z" fill="#242729"/>
<path d="M117.765 14.17C116.839 13.4913 116.263 13.0386 116.263 12.0516C116.263 11.3523 116.592 10.9614 117.374 10.9614C118.176 10.9614 118.443 11.5168 118.464 13.4091L120.85 13.3061C121.035 10.2417 120.027 8.96639 117.415 8.96639C114.988 8.96639 113.795 10.0566 113.795 12.2983C113.795 14.3345 114.783 15.26 116.387 16.4735C117.765 17.5429 118.567 18.1395 118.567 19.0033C118.567 19.6615 118.155 20.1139 117.436 20.1139C116.592 20.1139 116.099 19.3118 116.222 17.9134L113.816 17.9543C113.445 20.5663 114.495 22.0883 117.292 22.0883C119.739 22.0883 121.014 20.9572 121.014 18.6949C121.014 16.638 119.986 15.8154 117.765 14.17Z" fill="#242729"/>
<path d="M125.293 9.19268H122.578V21.8004H125.293V9.19268Z" fill="#242729"/>
<path d="M123.956 4.21542C122.907 4.21542 122.413 4.60629 122.413 5.96353C122.413 7.36221 122.907 7.71188 123.956 7.71188C125.025 7.71188 125.498 7.36221 125.498 5.96353C125.498 4.66784 125.025 4.21542 123.956 4.21542Z" fill="#242729"/>
<path d="M134.425 17.255L131.936 17.1316C131.936 19.353 131.689 20.0727 130.846 20.0727C130.003 20.0727 129.858 19.2706 129.858 16.6586V14.2112C129.858 11.6813 130.023 10.879 130.866 10.879C131.648 10.879 131.854 11.6402 131.854 13.9849L134.322 13.8203C134.486 11.8665 134.239 10.5294 133.479 9.76847C132.923 9.21307 132.08 8.94578 130.908 8.94578C128.152 8.94578 127.02 10.4268 127.02 14.5814V16.3499C127.02 20.6281 127.987 22.0059 130.805 22.0059C131.998 22.0059 132.82 21.7592 133.376 21.2247C134.178 20.4841 134.486 19.2088 134.425 17.255Z" fill="#242729"/>
<path d="M40.7197 19.4562C40.8772 19.045 40.9562 18.3731 40.9562 17.4404V13.5114C40.9562 12.6063 40.8772 11.9446 40.7197 11.5263C40.5618 11.1082 40.2841 10.8987 39.8866 10.8987C39.5024 10.8987 39.2316 11.1082 39.0741 11.5263C38.9162 11.9446 38.8376 12.6063 38.8376 13.5114V17.4404C38.8376 18.3731 38.9127 19.045 39.0637 19.4562C39.2145 19.8677 39.4887 20.0734 39.8866 20.0734C40.2841 20.0734 40.5618 19.8677 40.7197 19.4562ZM37.5313 21.4311C36.9619 21.0474 36.5573 20.4508 36.3177 19.6416C36.0774 18.8324 35.9576 17.7559 35.9576 16.4117V14.581C35.9576 13.2233 36.0945 12.1331 36.3689 11.3104C36.6433 10.4875 37.0715 9.88781 37.6546 9.51044C38.2372 9.13331 39.0019 8.94462 39.9484 8.94462C40.8807 8.94462 41.6281 9.13686 42.1904 9.52062C42.7526 9.90485 43.1641 10.5048 43.4247 11.3206C43.6852 12.1366 43.8156 13.2233 43.8156 14.581V16.4117C43.8156 17.7559 43.6887 18.836 43.4349 19.6518C43.1811 20.4678 42.7697 21.0644 42.2008 21.4413C41.6314 21.8182 40.8601 22.0071 39.8866 22.0071C38.8854 22.0071 38.1002 21.8149 37.5313 21.4311Z" fill="#242729"/>
<path d="M81.582 11.1345C81.4383 11.3127 81.3422 11.6044 81.2944 12.0087C81.2456 12.4133 81.2222 13.027 81.2222 13.8499V14.755H83.2996V13.8499C83.2996 13.0409 83.2722 12.4271 83.2177 12.0087C83.1625 11.5907 83.0633 11.2959 82.9194 11.1243C82.7752 10.9529 82.5522 10.8672 82.2508 10.8672C81.9488 10.8672 81.7262 10.9564 81.582 11.1345ZM81.2222 16.4418V17.0795C81.2222 17.8887 81.2456 18.4957 81.2944 18.9001C81.3422 19.3047 81.4414 19.5994 81.5925 19.7846C81.7433 19.9697 81.976 20.0623 82.2918 20.0623C82.7165 20.0623 83.0084 19.8977 83.1661 19.5686C83.3235 19.2396 83.4092 18.691 83.4232 17.9228L85.8714 18.0668C85.8848 18.1768 85.8917 18.3276 85.8917 18.5194C85.8917 19.6854 85.5728 20.5559 84.9353 21.1319C84.2977 21.7079 83.3955 21.996 82.2302 21.996C80.8313 21.996 79.8508 21.5573 79.2885 20.6794C78.726 19.8018 78.445 18.4444 78.445 16.6063V14.4051C78.445 12.5128 78.7364 11.1311 79.3195 10.2602C79.9024 9.38943 80.8998 8.95406 82.3124 8.95406C83.2861 8.95406 84.0333 9.13232 84.5546 9.48886C85.0757 9.84563 85.4424 10.4008 85.6552 11.1551C85.8678 11.9093 85.9741 12.9517 85.9741 14.2817V16.4418H81.2222Z" fill="#242729"/>
<path d="M30.6189 16.2057L27.3893 4.5419H30.2075L31.3388 9.8286C31.627 11.1319 31.8393 12.2424 31.9766 13.1612H32.0588C32.1547 12.5028 32.3675 11.3992 32.6966 9.84943L33.8692 4.5419H36.6873L33.4165 16.2057V21.8014H30.6189V16.2057Z" fill="#242729"/>
<path d="M52.9816 9.1913V21.8012H50.7598L50.5131 20.2585H50.4513C49.8476 21.4243 48.9425 22.0069 47.7361 22.0069C46.8992 22.0069 46.2822 21.7327 45.8845 21.1842C45.4868 20.6357 45.2882 19.7787 45.2882 18.6127V9.1913H48.1267V18.4484C48.1267 19.0107 48.1885 19.4117 48.3118 19.6515C48.4354 19.8918 48.6411 20.0116 48.929 20.0116C49.1759 20.0116 49.4124 19.9363 49.6388 19.7853C49.8651 19.6345 50.033 19.4427 50.1428 19.2093V9.1913H52.9816Z" fill="#242729"/>
<path d="M67.5428 9.19131V21.8012H65.321L65.074 20.2586H65.0125C64.4088 21.4243 63.5037 22.0069 62.297 22.0069C61.4604 22.0069 60.8434 21.7327 60.4457 21.1842C60.0478 20.6357 59.8494 19.7787 59.8494 18.6127V9.19131H62.6879V18.4484C62.6879 19.0107 62.7497 19.4117 62.873 19.6515C62.9964 19.8918 63.2021 20.0116 63.4902 20.0116C63.7372 20.0116 63.9737 19.9363 64.1997 19.7853C64.4263 19.6345 64.5942 19.4427 64.704 19.2093V9.19131H67.5428Z" fill="#242729"/>
<path d="M60.6952 6.8258H57.877V21.8012H55.1V6.8258H52.2818V4.54241H60.6952V6.8258Z" fill="#242729"/>
<path d="M74.3357 16.3507C74.3357 17.2697 74.2978 17.9897 74.2225 18.5105C74.147 19.032 74.0201 19.4023 73.8421 19.6215C73.6636 19.841 73.4235 19.9506 73.1221 19.9506C72.8887 19.9506 72.6728 19.8959 72.4742 19.7858C72.2753 19.6764 72.1141 19.5119 71.9908 19.2922V12.1336C72.0864 11.791 72.2509 11.5098 72.4846 11.2903C72.7173 11.0711 72.9709 10.9612 73.2455 10.9612C73.5334 10.9612 73.7564 11.0744 73.914 11.3005C74.0715 11.5268 74.1816 11.9075 74.2431 12.4423C74.3049 12.9771 74.3357 13.7382 74.3357 14.7254V16.3507ZM76.938 11.2072C76.7663 10.412 76.4886 9.836 76.1049 9.47923C75.7209 9.12293 75.1927 8.94466 74.5208 8.94466C73.9995 8.94466 73.5128 9.09215 73.0604 9.38666C72.6077 9.68164 72.2583 10.0692 72.0114 10.5491H71.9905L71.9908 3.90465H69.2547V21.8012H71.5996L71.8878 20.608H71.9496C72.1688 21.0332 72.4979 21.3692 72.937 21.6161C73.3755 21.8628 73.8627 21.9861 74.3975 21.9861C75.357 21.9861 76.0637 21.5441 76.5163 20.6594C76.9687 19.7749 77.1951 18.3935 77.1951 16.5145V14.519C77.1951 13.1068 77.1094 12.0027 76.938 11.2072Z" fill="#242729"/>
<path d="M12.559 25.4929C19.4607 25.4929 25.0557 19.8982 25.0557 12.9965C25.0557 6.0947 19.4607 0.5 12.559 0.5C5.6572 0.5 0.0625 6.0947 0.0625 12.9965C0.0625 19.8982 5.6572 25.4929 12.559 25.4929Z" fill="#F62B1E"/>
<path d="M12.559 5.4072C8.36793 5.4072 4.96973 8.8054 4.96973 12.9965C4.96973 17.1875 8.36793 20.5857 12.559 20.5857C16.75 20.5857 20.1482 17.1875 20.1482 12.9965C20.1482 8.8054 16.75 5.4072 12.559 5.4072ZM12.559 6.41572C16.1878 6.41572 19.1397 9.36767 19.1397 12.9965C19.1397 16.6252 16.1878 19.5772 12.559 19.5772C8.93019 19.5772 5.97825 16.6252 5.97825 12.9965C5.97825 9.36767 8.93019 6.41572 12.559 6.41572Z" fill="white"/>
<path d="M10.1447 16.6887L16.5348 12.9965L10.1447 9.30425V16.6887Z" fill="white"/>
</svg>
